<svg id="Layer_1" data-name="Layer 1" xmlns="http://www.w3.org/2000/svg" viewBox="0 0 1000 757.8"><defs><style>.cls-1,.cls-3{fill:none;}.cls-1,.cls-2{stroke:#000;stroke-width:8px;}.cls-1,.cls-2,.cls-3{stroke-miterlimit:10;}.cls-2,.cls-9{fill:#fff;}.cls-3{stroke:#bfe5f8;stroke-width:5px;}.cls-4{fill:#bfe5f8;}.cls-5{font-size:23.97px;font-family:Roboto-Regular, Roboto;}.cls-6{letter-spacing:-0.02em;}.cls-7{letter-spacing:-0.1em;}.cls-8{fill:#ae2d63;}.cls-10{fill:#00ac67;}</style></defs><g id="мапа"><path class="cls-1" d="M33.48,32.36s-2.25,6,0,8.23a30,30,0,0,1,1.12,8.62c0,5.24,12.73,5.24,12.73,1.5l6,3s2.25.75,6-1.5c0,0,8.23-3,9.73,1.5,0,0-.75,5.25,3.75,6,0,0,7.49-.74,9,5.25,0,0,1.49,4.49,13.48,6,0,0,6,2.25,7.49,6,0,0,14.23,15,18.72,23.22,0,0,2.25,8.24,1.5,10.49s10.49,23.21,10.49,23.21,3,3.75,0,6.74.74,6.75.74,6.75-1.49,6.74-1.49,9.73,7.49,12,7.49,12a8.67,8.67,0,0,1,3,6.74A25,25,0,0,0,145.45,187s2.25,3.75,1.5,6.74,3,8.24,3,8.24,2.25,5.24,0,9a9.26,9.26,0,0,1-1.25,5.12c-1.22,1.95-3.57,2.8-5.66,3.77-2.89,1.33-5.88,3.65-5.89,6.83a11.29,11.29,0,0,0,.9,3.67,39,39,0,0,1,2.19,12.43"/><path class="cls-2" d="M196.62,207.85l-1.84-6.42a14.45,14.45,0,0,1-.71-3.67,14.21,14.21,0,0,1,.64-3.81l.87-3.3a19.39,19.39,0,0,0,.64-3.1c.11-1.11,0-2.22,0-3.33a42.72,42.72,0,0,1,.32-4.52l.56-5.31c.16-1.45.94-2.68,1.35-4.08a51.44,51.44,0,0,1,2.91-8.19,17.22,17.22,0,0,1,5.42-6.7c2.66-1.85,5.9-2.62,9.06-3.34a87.16,87.16,0,0,0,9.54-2.57c4.06-1.43,8.27-3.2,12.32-4.67a37.6,37.6,0,0,0,8.32-4.27,27.37,27.37,0,0,1,5.53-3.37c2.89-1.1,6.12-.8,9.13-1.49,3.93-.91,7.34-3.45,11.28-4.31,2.1-.46,4.33-.44,6.3-1.32a14.68,14.68,0,0,0,2.81-1.82l6.05-4.62a111.88,111.88,0,0,0,14.54-13.23c2.08-2.26,5.29-3.16,8.36-3.18a9.52,9.52,0,0,1,5,1.16c1.79,1.11,2.91,3,4.12,4.74a66.31,66.31,0,0,0,6,7.06,20,20,0,0,0,3.57,3.25c.82.54,1.7,1,2.53,1.47,2,1.22,2.72,3.29,4.48,4.8l3.91,3.35a16.25,16.25,0,0,1,3.51,3.71c1.53,2.52.53,5.48,1.5,8.26.59,1.7.72,3.61,1.81,5a5.74,5.74,0,0,0,3.7,2,12.41,12.41,0,0,0,4.29-.24,10,10,0,0,1,2.48-.3c1.72.11,3.19,1.23,4.76,1.94a10.89,10.89,0,0,0,9.8-.47,4.26,4.26,0,0,0,1.78-1.71,4,4,0,0,0,.32-1.49,13.58,13.58,0,0,0-1.08-5.12,33.58,33.58,0,0,0-4-8,19.89,19.89,0,0,1-2-3.07,4.19,4.19,0,0,1-.16-3.57,5.93,5.93,0,0,1,1.7-1.83c1.65-1.34,3-3,4.87-4,2.37-1.29,3.34-4.14,4.1-6.73a25.86,25.86,0,0,0,.86-3.47,11.13,11.13,0,0,1,.33-1.83,7.91,7.91,0,0,1,1.38-2.36c1.31-1.76,2.66-3.48,4-5.21l3-3.88a27.48,27.48,0,0,1,4-4.45c1.4-1.15,3.05-2.46,4.86-2.57s3.93-.2,5.62.69c2.91,1.52,4.08,5.53,7.21,6.53a1.77,1.77,0,0,0,2.57-2,10.25,10.25,0,0,0-2.12-4.82,10.43,10.43,0,0,1-2.14-4.82c-.12-1.77,1-3.77,2.78-3.93a5.21,5.21,0,0,1,1.56.19A7.42,7.42,0,0,1,414.45,87a10.31,10.31,0,0,1,1.35,1.73A7.33,7.33,0,0,0,420.32,92a2.46,2.46,0,0,0,1.95-.35,3.24,3.24,0,0,0,.79-1.07l1.09-2A3.43,3.43,0,0,1,426,86.73a2.63,2.63,0,0,1,2.76,1.57c.26.5.42.79,1,.66a5.62,5.62,0,0,0,6.57,1.16l9.23-2.93c1.75-.55,3.63-1.11,5.38-.59a7,7,0,0,1,2.64,1.62,4.58,4.58,0,0,0,2.17,1.41,4.44,4.44,0,0,0,2.48-.7,17.7,17.7,0,0,1,4-1.38,20.93,20.93,0,0,1,3.83-.83,11.56,11.56,0,0,1,3.88.78,19.86,19.86,0,0,1,2.41.9,8.8,8.8,0,0,0,3.27,1.22c1.27,0,2.44-.7,3.71-.76a5.56,5.56,0,0,1,3.91,1.4,6.35,6.35,0,0,0,8.42-.15,15.76,15.76,0,0,0,2.11-2.94A26.22,26.22,0,0,1,498,82.05a2.62,2.62,0,0,1,1.7-.88,3.62,3.62,0,0,1,1.87,1,3.3,3.3,0,0,0,2.34.72c1.62-.23,2.46-2,3.63-3.11,1.84-1.78,4.71-2.61,6.81-4.07,3.6-2.51,5.48-7.24,9.53-8.91,1.14-.47,2.38-.66,3.52-1.12a12.36,12.36,0,0,0,4.5-3.59,19,19,0,0,1,4.26-3.31,7.16,7.16,0,0,1,1.55-.87,4.88,4.88,0,0,1,2.08-.22,7.69,7.69,0,0,1,4.1,1.63c1.17.92,2.06,2.18,3.3,3a9.17,9.17,0,0,0,6.79,1,4.3,4.3,0,0,0,1.49-.5,4.39,4.39,0,0,0,1.17-1.22c1.92-2.72,3.75-5.81,3.75-9.13a6.14,6.14,0,0,1,.87-3.69,4.43,4.43,0,0,1,3.92-1.56,11.32,11.32,0,0,1,4.16,1.36,16.36,16.36,0,0,1,4.16,2.68,6.89,6.89,0,0,0,1,.83,4.78,4.78,0,0,0,1.21.51c2.13.65,4.38,1,6.28,2.22a8.18,8.18,0,0,0,2,1.12,14.43,14.43,0,0,1,1.61.36c1.15.46,1.62,1.79,2.17,2.9A10.28,10.28,0,0,0,589.83,62a4.82,4.82,0,0,0,2,1.27,5.83,5.83,0,0,0,3.58-.54,13.94,13.94,0,0,0,2.68-1.26,3.94,3.94,0,0,1,5,.91A11.65,11.65,0,0,0,604.29,64a3.17,3.17,0,0,0,2.71.68,9.41,9.41,0,0,0,2.69-1.05l6.14-3.15a3.37,3.37,0,0,1,2.09-.55c1.25.23,2,1.77,3.21,2s2.29-1,3-2c1-1.48,2.29-3.09,4.08-3.24,1.15-.1,2.26.44,3.42.51a6.82,6.82,0,0,0,3.28-.82,20,20,0,0,0,2.89-1.72c2.75-2,4.69-5,7.75-6.46,1.56-.74,3.37.07,5,.55a24.43,24.43,0,0,0,4.75.71,3.06,3.06,0,0,0,1.13,0,3.27,3.27,0,0,0,1.39-1.25c2-2.52,4.9-4.19,7-6.6s4-5.21,6.76-6.77c.75-.42,1.3-1.34,2.16-1.29a1.41,1.41,0,0,1,1.14.85,4,4,0,0,1,.3,1.45,34.17,34.17,0,0,1-.12,6.07,5.21,5.21,0,0,0,.05,2.12,4.84,4.84,0,0,0,.93,1.49c2.38,2.91,4.43,5.76,7.31,8.17A28.12,28.12,0,0,0,687,56.17a6.57,6.57,0,0,0,2,.89,7.71,7.71,0,0,0,2.25,0,14.37,14.37,0,0,1,5.81.31,12,12,0,0,1,5,3.58c1.39,1.54,2.59,3.24,4,4.72a12.85,12.85,0,0,1,2.78,3.3,17.33,17.33,0,0,1,.64,1.88c.68,2.06,2.12,3.71,3.33,5.5a23.18,23.18,0,0,0,5.84,5.93,13.4,13.4,0,0,1,2.34,1.83,10.81,10.81,0,0,1,1.16,1.67l1.68,2.78a36.84,36.84,0,0,1,1.81,3.25,56.09,56.09,0,0,0,3.23,6.83,17.9,17.9,0,0,0,5.8,5.62A48.88,48.88,0,0,1,739.4,107a10.45,10.45,0,0,1,4,9c-.07.91-.27,1.8-.29,2.72-.07,2.36,1.64,4.23,2.15,6.53a6.12,6.12,0,0,0,2,3.75,7.84,7.84,0,0,0,1.89.91,43.39,43.39,0,0,1,9.31,5,20,20,0,0,1,2.66,2.19c.91.93,1.66,2,2.54,3a30.84,30.84,0,0,0,5.12,4.18c1.87,1.33,3.56,3.42,5.73,4.17l5.68,2a8.8,8.8,0,0,1,4.66,3c1.27,1.33,2.53,2.69,3.76,4.06a12,12,0,0,0,2.76,2.51,14.78,14.78,0,0,1,1.83,1,17.83,17.83,0,0,1,1.76,2c1.17,1.24,3.17,2.1,4.69,1.32l2.7-1.39a15.51,15.51,0,0,1,3.18-1.33,5.09,5.09,0,0,1,3.38.18c1.73.79,2.6,2.71,3.32,4.48s1.55,3.69,3.25,4.54c2,1,4.38.16,6.52.68,1.89.47,3.46,2,5.4,2.17s4.4-.15,5.31-1.88a5.13,5.13,0,0,1,.94-1.4,1.76,1.76,0,0,1,1.55-.51,1.84,1.84,0,0,1,.83.51c1.5,1.49,1.07,4,1.86,6a6.44,6.44,0,0,0,5.67,3.62,15,15,0,0,0,6.84-1.63,8.65,8.65,0,0,1,2.55-.87,2.64,2.64,0,0,1,2.43.88c.66.88.44,2,.33,3.11l-.38,3.79a8.74,8.74,0,0,0-.05,1.91c.2,1.69,1.34,3.09,2.24,4.54a23.55,23.55,0,0,1,3.19,10.78,70.24,70.24,0,0,1-.26,11.51c.54,1,0,2.35.37,3.47a5.46,5.46,0,0,0,1.34,1.94,18.79,18.79,0,0,1,4.71,12.28c0,3-.66,6.33.91,8.92a11.53,11.53,0,0,0,1.88,2.19c1.31,1.29,2.38,2.95,3.83,4.09a13.6,13.6,0,0,1,3.84,4.09,14.48,14.48,0,0,1,1.17,3.49,67.57,67.57,0,0,1,2,10.8,14.29,14.29,0,0,0,.67,4.28,11.07,11.07,0,0,0,1.38,2.34c1,1.34,1.72,3.06,3.14,3.93a5.19,5.19,0,0,1,2.07,3.94c.16,1.53,0,3.08.22,4.6a2.87,2.87,0,0,0,.84,1.84,3.49,3.49,0,0,0,1.57.59,68.22,68.22,0,0,0,8.62,1.31,19.46,19.46,0,0,1,3.24.34A4.84,4.84,0,0,1,905,290a6.57,6.57,0,0,1,.9,1.91c.73,2.13,1.32,3.94,1.95,6.11a27.48,27.48,0,0,0,2.08,5.09,8.38,8.38,0,0,1,1.18,2.9,7.2,7.2,0,0,1-.82,3.49l-2.65,6.31a53,53,0,0,1-2.23,4.84,26.93,26.93,0,0,1-3.94,5.68c-1.44,1.48-2.93,3.06-3.45,5.05-.55,2.15.1,4.44-.29,6.61a2.55,2.55,0,0,1-.49,1.21,2.71,2.71,0,0,1-1.58.81c-1.29.27-2.63.23-4,.41a5.5,5.5,0,0,0-3.52,1.63c-1,1.2-1.15,2.93-1.21,4.51-.12,3.67-.13,7.33-.11,11,0,1.53-.4,2.95-.35,4.46a12.15,12.15,0,0,0,1.11,4.63c1,2.18,2.64,4,3.92,6s2.22,4.48,1.62,6.81-2.59,3.61-3.61,5.65a7.48,7.48,0,0,0-.66,4.61,20.3,20.3,0,0,0,1.83,4.68,8.16,8.16,0,0,1,.91,4.88c-.33,1.57-1.43,2.91-1.7,4.49a12.94,12.94,0,0,0,.23,3.61c.25,2.14-.09,4.18,0,6.33s.3,4.47,1.5,6.29c.73,1.11,1.79,1.95,2.62,3a4.08,4.08,0,0,1,1,3.67,5.73,5.73,0,0,1-1.51,2.06,25,25,0,0,0-3.75,5.1,6,6,0,0,0,.23,6.86,22.48,22.48,0,0,1,2.15,4.34c.42,1.52-.18,3.12-.4,4.68-.55,3.86,1.2,7.93,0,11.63a15.18,15.18,0,0,1-3.56,5.2,10.46,10.46,0,0,1-2.48,2.22,8.73,8.73,0,0,1-4.07.91c-1.75.06-3.25-.56-5-.32a30.37,30.37,0,0,1-6.09.45c-1.44-.08-2.87-.36-4.32-.43-5.46-.28-10.77,2.48-16.21,2a4.8,4.8,0,0,1-2.88-1c-.76-.72-1.14-1.85-2.07-2.33a2.6,2.6,0,0,0-2.32.09,8.41,8.41,0,0,0-1.9,1.47c-3.31,3.12-7.2,5.29-10,8.85a22.37,22.37,0,0,0-2.36,3.63,5.69,5.69,0,0,0-.73,2.18,8.35,8.35,0,0,0,.53,2.69,12.53,12.53,0,0,1-.45,7.82c-.43,1.08-1,2.09-1.4,3.18-1.13,3.16-.19,6.72,0,10.06a45.91,45.91,0,0,1-.85,11.34c-.3,1.48-.68,3-1,4.43-1,5.2-.63,10.34-1.32,15.6-.63,4.73-1.55,9.52-3.81,13.73a8.52,8.52,0,0,1-3,3.5,8.92,8.92,0,0,1-2.85.93,4,4,0,0,1-2,0,4.26,4.26,0,0,1-1.43-1,18.61,18.61,0,0,1-3.93-4.29,30.15,30.15,0,0,1-1.86-4.55c-.95-2.48-2.67-4.58-3.48-7.11-.5-1.59-2.45-2.24-4.11-2.06s-3.19.92-4.84,1.17a4.27,4.27,0,0,0-1.43.33,2.62,2.62,0,0,0-1,1,7.59,7.59,0,0,0-1,5.63,13.45,13.45,0,0,1,.66,3.28c-.06,1.63-1.21,3-2.32,4.2a142.76,142.76,0,0,1-13,12.51,2.45,2.45,0,0,1-3.19.45c-2.76-1.13-5.45-2.1-7.67-4.09a6.6,6.6,0,0,0-4.26-1.53,16.83,16.83,0,0,0-4.56.67,83.72,83.72,0,0,0-10.59,3.41c-2,.82-4.21,1.73-6.35,1.23s-4.12-2.35-6.19-1.64c-1,.33-1.72,1.21-2.71,1.58a5.21,5.21,0,0,1-2,.24,24.51,24.51,0,0,1-8.42-1.29,12.06,12.06,0,0,1-6.48-5.3,1,1,0,0,0-.44-.49c-.59-.22-.84.7-1.25,1.17a1.47,1.47,0,0,1-1.72.23c-1-.48-1.43-1.46-2.56-1.78-2.09-.58-3.9,1.87-6.06,1.89-1.07,0-2.07-.58-3.14-.63a4.46,4.46,0,0,0-2.88,1,20,20,0,0,0-2.25,2.17,1.13,1.13,0,0,1-.82.43c-.44,0-.65-.54-.77-1l-3-10.13a1.65,1.65,0,0,0-.71-1.11,1.68,1.68,0,0,0-1,0,16,16,0,0,1-7.19.18c-2.4-.47-4.93-1.12-6.59-2.92-1-1.05-1.55-2.43-2.66-3.3a4.25,4.25,0,0,0-4.45-.45c-1.68.84-2.74,2.78-4.56,3.23-2.25.54-4.31-1.43-6.6-1.76-1.49-.21-3.27,0-4.09,1.27a4.85,4.85,0,0,1-3.44,1.85c-1.33.21-2.69.17-4,.5-2.92.75-5.05,3.24-6.66,5.79s-2.95,5.34-5.19,7.37a4.91,4.91,0,0,1-3,1.46,4.12,4.12,0,0,1-2.74-1,11.8,11.8,0,0,1-2-2.26,5.4,5.4,0,0,0-1.53-1.59,5.29,5.29,0,0,0-2.62-.44c-1.55,0-3-.29-4.54-.27a9.44,9.44,0,0,1-3-5.32c-.18-1-.23-2.21-1-3a2.73,2.73,0,0,0-2.73-.46,7.75,7.75,0,0,0-2.46,1.55c-2,1.66-4.12,3.13-6,4.93l-3.1,2.89a6.28,6.28,0,0,1-1.67,1.23,5.62,5.62,0,0,1-2,.35,24.56,24.56,0,0,1-6.67-.68,11.43,11.43,0,0,0-3-.51c-1.85,0-3.46,1.18-5,2.26-1.15.84-2.31,1.68-3.44,2.55a78,78,0,0,0-9.3,8.41,5.64,5.64,0,0,1-2.37,1.78c-.54.16-1.12.14-1.67.29-3.7,1-4.36,6.89-4.37,10a13.29,13.29,0,0,0,.2,3c.38,1.79,1.47,3.4,1.6,5.21a5.2,5.2,0,0,1-3.76,5.22c-.83.22-1.71.22-2.55.42a2.66,2.66,0,0,0-2,1.52c-.37,1.09.4,2.31.12,3.43a2.76,2.76,0,0,1-1.74,1.72,25,25,0,0,1-2.44.64,8.5,8.5,0,0,0-5.09,4c-1.13,2-1.7,4.39-3.08,6.23a10.18,10.18,0,0,1-2.07,2c-3.28,2.51-7,4.41-10.47,6.59-1.23.77-2.55,1.74-2.79,3.17-.29,1.72,1.09,3.24,1.52,4.93.69,2.69-1.08,5.26-2.55,7.62a25.67,25.67,0,0,1-2.9,4,8.53,8.53,0,0,1-4.16,2.59,11.1,11.1,0,0,1-2.82.19,41.61,41.61,0,0,1-11.55-2,12.86,12.86,0,0,1-3.52-1.64,11.67,11.67,0,0,0-2.59-1.82A5.31,5.31,0,0,0,490,643a14.82,14.82,0,0,0-8,4.47,3.72,3.72,0,0,0-.78,1.15c-.34,1,.49,1.94.54,3l.33,6.58c-2,1.13-4.45.71-6.74.55s-5,.19-6.14,2.16c-.49.82-.68,1.88-1.47,2.41-1.12.75-2.76,0-3.89.74-.92.59-1.13,1.91-2,2.54s-2.19.39-3,1.08-.83,2.08-1.61,2.87a3.5,3.5,0,0,1-1.88.82c-1.29.26-2.59.47-3.89.62a7,7,0,0,1-2.91-.11,6.71,6.71,0,0,1-2.14-1.32,30.89,30.89,0,0,1-6.54-7.51,25.71,25.71,0,0,0-2.62-3.89c-3.06-3.35-8.1-3.93-12.63-3.69s-9.15.79-13.59-.17l-9.41-2a11.2,11.2,0,0,0-3.5-.38,3.85,3.85,0,0,0-2.81,1.44l-6.4,7.77a60.75,60.75,0,0,1-4.53,5.09,12.3,12.3,0,0,1-3,2.21,12.69,12.69,0,0,1-2.89.94c-1.53.36-3.08.62-4.63.88l-5.17.88c-1.34.23-2.68.45-4,.58a62.49,62.49,0,0,1-7.94.73c-2.52-.08-5.26-.09-7.31,1.38a4.88,4.88,0,0,1-1.43.89,2.67,2.67,0,0,1-2.78-1.46c-.58-1-.85-2.09-1.45-3a8.56,8.56,0,0,0-4-3c-1.47-.64-3-1.14-4.52-1.64a8.16,8.16,0,0,0-2.15-.49,6.31,6.31,0,0,0-4.06,1.58,7.5,7.5,0,0,1-2.08,1.39c-1.74.61-3.83-.47-5.45.42a5.06,5.06,0,0,0-1.41,1.36L316.82,675a4.52,4.52,0,0,1-2.22,1.78c-1,.25-2-.16-3,.11-4.25,1.14-49,0-52.73-.11.83-5.69,2.91-12.22-.07-17.15a17.14,17.14,0,0,0-3.41-4.08,16.4,16.4,0,0,0-3.36-2.3c-1.11-.56-2.28-1-3.35-1.6-1.74-1-3.38-2.54-5.38-2.76-3.42-.38-6.75,1.43-10.19,1.33-5.6-.16-9.8-5.18-15.1-7a3.22,3.22,0,0,0-2.3-.12,3.44,3.44,0,0,0-1.06.88c-3.35,3.75-5.52,8.5-9.21,11.92a5.16,5.16,0,0,1-3.26,1.66c-1.4,0-2.6-.93-3.85-1.55-2.84-1.4-6.16-1.19-9.32-1.15s-7.8.88-9.1-2c-.81-1.8-18.72-73.61-20.06-75.06a6.39,6.39,0,0,0-3.76-1.58,58.24,58.24,0,0,0-10.3-.8c-2.75,0-5.7.2-8-1.29-1.22-.8-2.54-1.81-2.79-3.25-.31-1.77-1.36-3.3-2-5s-.79-3.78.47-5c.91-.91,2.37-1.18,3.11-2.23s.44-2.61,0-3.88a27.64,27.64,0,0,0-2.33-5c-1.77-3-3.94-5.7-5.48-8.81a57.35,57.35,0,0,0-3.69-6.35,5.05,5.05,0,0,0-1.59-1.69c-.65-.37-1.43-.44-2.1-.78a4.22,4.22,0,0,1-1.92-2.55,32.08,32.08,0,0,1-.62-3.22,13.61,13.61,0,0,0-2.37-5.31c-.14-2.25-2-4-2.77-6.11a14.07,14.07,0,0,1-.19-5.53c.14-1.85.13-3.84-.9-5.39a7.93,7.93,0,0,1-1-1.52c-.33-.84,0-2,.07-2.85a32.14,32.14,0,0,0-.89-9.07c-.85-3.21-2.43-6.24-2.81-9.54-.09-.76-.11-1.54-.26-2.3s-.5-1.68-.61-2.55c-.18-1.49.56-3,.6-4.52l.08-3.12a2.13,2.13,0,0,1,.37-1.41,1.52,1.52,0,0,1,1.72-.23,6.65,6.65,0,0,1,1.5,1.1,9,9,0,0,0,2.14,1.35,1.55,1.55,0,0,0,.72.19,1.63,1.63,0,0,0,1-.65,9.58,9.58,0,0,0,2-3.78c.29-1.07.56-2.4,1.62-2.75.57-.18,1.22,0,1.76-.27.76-.37.87-1.38,1.15-2.18.53-1.53,1.91-2.59,2.77-4a17,17,0,0,0,2.31-8.55A5.36,5.36,0,0,1,128,444.3a8.06,8.06,0,0,0,.73-.93,3.17,3.17,0,0,0,0-2.8,11.33,11.33,0,0,0-1.64-2.38,40.75,40.75,0,0,1-3.42-4.92A6.81,6.81,0,0,0,122,431a7.44,7.44,0,0,0-4-1.17c-1.74-.09-3.62-.58-4.64-2a5.6,5.6,0,0,1-.86-3.48c0-1.21.25-2.42.22-3.64-.15-4.9-3.74-9-5-13.73a5,5,0,0,0-4.29-3.28c-1-.13-2.16-.07-3-.73a3.35,3.35,0,0,1-1-2.42,9.42,9.42,0,0,0-.32-2.66,10.69,10.69,0,0,0-.94-1.64,8.54,8.54,0,0,1,.08-8.69c.56-.89,1.29-1.68,1.81-2.6a3.68,3.68,0,0,0,.46-3c-.37-1-1.37-1.8-1.24-2.84a2,2,0,0,1,1.55-1.51,7.26,7.26,0,0,1,2.28,0,17.47,17.47,0,0,0,10.17-2.47,8.72,8.72,0,0,0,7.16-4.16,6.87,6.87,0,0,1,.83-1.26,5.82,5.82,0,0,1,3-1.3,4.78,4.78,0,0,0,3-1.69,4,4,0,0,0,.58-2.41c-.07-3.64-2.44-6.82-3.15-10.39-.19-.94-.26-1.91-.53-2.83a10.83,10.83,0,0,0-2.91-5.13,8.35,8.35,0,0,1-2.64-3.49c-.69-2.15.24-4.58-.47-6.73-.37-1.12-1.18-2.19-1-3.35s1.48-2,2.16-3.12a7.18,7.18,0,0,0,.83-3.31c.33-3.77.65-7.68-.64-11.24-1-2.66-2.77-5-3.43-7.73a10.84,10.84,0,0,1,1.11-7.24,44.57,44.57,0,0,0,3.7-9.37c.5-2.21.73-4.63,2.22-6.34,1.88-2.17,5.14-2.42,7.58-3.7a4.27,4.27,0,0,0,1.14-.78,6.12,6.12,0,0,0,1.48-4.12c-.19-4.89-3.72-9.2-3.85-14.1,0-1.73.34-3.45.23-5.18a27.56,27.56,0,0,1-.33-3.94,8.54,8.54,0,0,1,.5-2.11,13.85,13.85,0,0,1,2.68-4.84c1.24-1.38,3-2.82,4.89-2.93a5.71,5.71,0,0,1,5.8,5.4,2.8,2.8,0,0,0,.35,1.82,2.86,2.86,0,0,0,1.74.6,4.85,4.85,0,0,1,3.23,2.25,4.05,4.05,0,0,0,.79,1.15c.84.7,2.1.24,3.07-.23,2-1,4-2,5.3-3.81,1.36-2,1.6-4.56,3.16-6.35a1.85,1.85,0,0,1,1.55-.77,2.22,2.22,0,0,1,1.18.84c1.18,1.33,2.59,2.32,3.75,3.71a37.56,37.56,0,0,1,3.38,4.82,9.73,9.73,0,0,0,2.5,3.26,1.29,1.29,0,0,0,.73.29,1.48,1.48,0,0,0,.73-.27,16.89,16.89,0,0,0,3-2.36c1-1,2.49-.88,3.87-1.38a12.57,12.57,0,0,0,4.12-2.91,15,15,0,0,0,5.83-10l1-4.38a8.77,8.77,0,0,1,.66-2.07,12,12,0,0,1,2.77-3,13.52,13.52,0,0,0,4.43-9.74,23.3,23.3,0,0,0-1.49-7C198.4,210.58,197.1,209.52,196.62,207.85Z"/><path class="cls-1" d="M278.54,749.76a33,33,0,0,0-9.25-13.94,36.38,36.38,0,0,0-6.83-5.12,12.68,12.68,0,0,1-3.87-2.54c-1.31-1.55-1.5-3.76-1.32-5.78a32.67,32.67,0,0,0,.46-6.07c-.21-2.14-4.31-1.78-5.78-3.35a1.49,1.49,0,0,1-.38-.62c-.21-.71.33-1.41.9-1.9,1.57-1.35,3.61-2.2,4.84-3.87,1.46-2,1.49-4.61,1.45-7.05l-.11-7.72c-.06-4.9.69-9.93.64-14.83"/><path class="cls-1" d="M967.52,473.35c-3.52,2-7.52,4.1-11.43,3-1-.26-1.84-.7-2.8-.92-3.2-.74-6.38,1-9.55,1.89-4.82,1.35-9.94.74-14.91.11a20.13,20.13,0,0,1-3.76-.72c-3.83-1.29-6.94-4.95-11-4.76a17,17,0,0,0-4.78,1.4,6.75,6.75,0,0,1-4.87.28c-1.46-.63-2.5-2.12-4.05-2.43-1.36-.28-2.7.42-3.91,1.1-1.78,1-4.27-.17-6.29-.47a7.8,7.8,0,0,1-1.85-.44,9.15,9.15,0,0,1-3-2.32"/><path class="cls-1" d="M751.6,8a4.81,4.81,0,0,1,.06,4.28c-1.25,2.53-4.67,3.83-5.06,6.62a14.79,14.79,0,0,0,.11,2.57,2.8,2.8,0,0,1-.82,2.33,2.88,2.88,0,0,1-1.57.49c-2.11.15-4.19-.56-6.3-.66s-4.57.72-5.26,2.72c-.39,1.13-.13,2.41-.57,3.53-.63,1.59-2.45,2.33-3.53,3.66-1.26,1.55-1.37,3.74-1.12,5.73a30.73,30.73,0,0,1,.67,5.95,8.21,8.21,0,0,1-3.36,6.08,7.31,7.31,0,0,1-6.83.83c-1.69-.68-3.1-2.05-4.89-2.38-4.06.51-7.73,3.23-11.6,4.57-1.77.62-3.87,1.17-4.65,2.88"/><path class="cls-1" d="M449.35,40.06,442,44.37a10.37,10.37,0,0,0-3.61,2.91,8.52,8.52,0,0,0-1.06,2.59c-.8,3-.95,6.32.54,9a16.67,16.67,0,0,0,3.9,4.27c2.27,2,4.77,3.59,6.82,5.78a22,22,0,0,1,2.35,3.15,12.15,12.15,0,0,1,1.63,3.16,11,11,0,0,1,.32,3,48.19,48.19,0,0,1-.83,8.88"/><path class="cls-3" d="M180.64,238.09c-3-.61-6.06.9-9,1.85a25.33,25.33,0,0,1-6.79,1.18c-1.66.06-3.67.14-4.48,1.58a4.93,4.93,0,0,0-.43,1.51,14.69,14.69,0,0,1-1.52,4.68,6.92,6.92,0,0,1-3.62,3.21c-.64.22-1.33.32-1.95.6a4.77,4.77,0,0,0-2.39,5,10.47,10.47,0,0,0,2.7,5.18c1.1,1.29,2.38,2.59,2.61,4.26a8.27,8.27,0,0,1-.12,2.22,70.18,70.18,0,0,0-.69,8.68,8.23,8.23,0,0,0,2.32,5.57c1.39,1.56,3.07,2.86,4.33,4.52s3.88,2.38,4.59,4.37a5.67,5.67,0,0,1,.22,1.88l0,5.39c0,1,0,2.05,0,3.08a16.8,16.8,0,0,1-.51,3.6,23,23,0,0,1-3.72,7c-.86,1.23-2.47,2-3.64,3a2.61,2.61,0,0,0-.86.95,2.89,2.89,0,0,0-.05,1.52,23.58,23.58,0,0,1-.29,8.08"/><path class="cls-3" d="M164.85,309l2.75,2.16a6.76,6.76,0,0,0,1.72,1.09,6.9,6.9,0,0,0,2.17.3l5.49.15c2.36.07,4.75,0,6.63,1.45.87.67,1.61,1.51,2.5,2.17,1.41,1.05,3.3,1.72,4,3.35"/><path class="cls-3" d="M189.83,292.54a14.58,14.58,0,0,0,4.4,4.34c1.13.84,2.49,1.71,3.83,1.31.78-.24,1.4-.88,2.19-1.07a3.68,3.68,0,0,1,1.77.12c2.14.55,4.19,1.49,6.39,1.62s4.7-.86,5.37-3c3-2.59,5.48-5.54,8.31-8.34s6.12-5.34,10-6.25a26.34,26.34,0,0,1,5.61-.52c2.92-.05,5.85-.06,8.77,0a3.48,3.48,0,0,0,1.54-.21,2.78,2.78,0,0,0,1.32-2.13,15.63,15.63,0,0,1,.4-2.57c.52-1.5,1.89-2.39,3.13-3.25,1.41-1,2.07-2.51,3.55-3.39.26-.16.57-.33.64-.63a1.13,1.13,0,0,0-.1-.65,8,8,0,0,1,1-6.42,39.19,39.19,0,0,1,4.11-5.26,3.68,3.68,0,0,0,.85-1.43c.11-.47,0-1,.13-1.45.27-1.54,2-2.51,2.27-4a5.55,5.55,0,0,0-.42-2.49,13.33,13.33,0,0,1-.1-7.09,2.91,2.91,0,0,0-.94-2.74c-.51-.5-1.19-.8-1.73-1.26a3.65,3.65,0,0,1-.63-4.67c.85-1.25,2.41-1.85,3.34-3.05a5.74,5.74,0,0,0,1-3.71c0-1.3-.33-2.58-.46-3.87a3.54,3.54,0,0,1,.75-3c.6-.54,1.48-.66,2.13-1.14,1.21-.88,1.31-2.6,1.31-4.09s.15-3.23,1.4-4c.81-.53,1.86-.49,2.74-.9,1.71-.81,2.48-3.17,4.35-3.5,1.63-.28,3.36,1.2,4.86.49,1.08-.52,1.39-1.91,1.47-3.11a4.28,4.28,0,0,1,2.24-3.5c.93-.48,2.1-.79,2.55-1.74a3.4,3.4,0,0,0,.21-1.56l-.06-2.31a2.63,2.63,0,0,1,.25-1.45,2.24,2.24,0,0,1,1.08-.83c2.07-1,4.48-1.26,6.28-2.65s2.67-3.58,4.31-5.09,4-2.21,6.12-3.24a31.45,31.45,0,0,0,5.16-3.39,7.88,7.88,0,0,0,1.69-1.62,2.68,2.68,0,0,0,.46-2.23,3.48,3.48,0,0,0,.34-2.78,13.28,13.28,0,0,0-1-3.13l-2-4.86a10.86,10.86,0,0,1-.85-2.7,3.59,3.59,0,0,1,.63-2.69c.76-1,2.23-1.47,2.43-2.68.09-.51-.08-1,0-1.54a1.89,1.89,0,0,1,1.72-1.22,8.39,8.39,0,0,1,2.21.29c3.69.67,7.43-.55,11.14,0,3.27.45,5.57,3,7.64,5.35l1.93,2.24a10.85,10.85,0,0,0,1.67,1.65c.75.54,1.63.86,2.41,1.33,2,1.19,3.29,3.26,5.12,4.67.91.71,2,1.41,2.15,2.55a3.4,3.4,0,0,1-.38,1.64c-.37.86-.75,1.73-1.15,2.58-.88,1.91-1.85,4-1.45,6a4.89,4.89,0,0,0,3.3,3.66c.5.16,1,.23,1.49.43a5.86,5.86,0,0,1,1.77,1.37,12.74,12.74,0,0,0,6.73,3.76c2.62.48,5.3.45,7.92.93a39.26,39.26,0,0,0,4.43.83c2.35.17,4.81-.46,7,.36.94.35,1.78.95,2.73,1.28A6.48,6.48,0,0,0,389,189.2"/><path class="cls-3" d="M162.38,313l5.32-.11a2.13,2.13,0,0,0,1.64-.51"/><path class="cls-3" d="M157.48,326.6c-.2,2-1.5,3.62-2.83,5.08a4.09,4.09,0,0,1-1.78,1.33,4.5,4.5,0,0,1-1.93,0,27.9,27.9,0,0,0-5.63-.27,2.78,2.78,0,0,0-1.11.22,1.76,1.76,0,0,0-.69.61,4.83,4.83,0,0,0-.55,3q.14,3.38.39,6.74c.51,6.91,1.48,14.11,5.41,19.82,0,1.39,1.36,2.26,1.34,3.65a3.43,3.43,0,0,1-.44,1.49c-.56,1.1-1.33,2.2-1.26,3.43.08,1.41,1.28,2.68,1,4.06-.19.9-1,1.56-1.28,2.43-.34,1,.05,2.25-.53,3.17-.71,1.11-2.3,1.05-3.59,1.34-2.63.58-4.41,2.93-6.55,4.56A26.64,26.64,0,0,1,132.5,390c-3.08,1.44-4.15,5.26-6.28,7.91a2.78,2.78,0,0,1-.91.83,3.16,3.16,0,0,1-1.65.11,29.27,29.27,0,0,0-5,.07l-2.55.19a8.07,8.07,0,0,0-1.89.28,4.45,4.45,0,0,0-3,4.79c.26,1.59,1.37,2.89,2.06,4.35a8.7,8.7,0,0,1,.84,4.11,3.61,3.61,0,0,0,.08,1.39c.36,1,1.64,1.36,2.56,2a4.11,4.11,0,0,1,1.29,5.29c-.29.5-.7,1.06-.48,1.6s1,.63,1.63.72a5.12,5.12,0,0,1,2.79,1.32,24,24,0,0,0,2.25,2.37,18.17,18.17,0,0,1,1.74,1.09c.39.37.65.84,1,1.22a1.38,1.38,0,0,0,1.43.45,8.65,8.65,0,0,0-5.1-7.17,4.3,4.3,0,0,1-1.64-.93,1.13,1.13,0,0,1,.06-1.66c.52-.31,1.39,0,1.65-.58a1,1,0,0,0,0-.64c-.18-1.05-.5-2.27-1.48-2.68a6.21,6.21,0,0,0-1.43-.25,1.34,1.34,0,0,1-1.14-.79c-.18-.62.38-1.17.8-1.66s.7-1.35.15-1.68c-.33-.21-.75-.07-1.14-.1a1.71,1.71,0,0,1-1.33-1,5.39,5.39,0,0,1-.42-1.68c-.14-1.08-.2-2.36.64-3a4,4,0,0,1,1.35-.58c2.53-.79,4.59-2.59,6.58-4.35l3.83-3.39c1.51-1.33,6.12-6.12,7.62-10.61"/><path class="cls-3" d="M90.61,366.64A6.42,6.42,0,0,0,91.68,372a18.88,18.88,0,0,0,4,3.94l2.26,1.8a7.65,7.65,0,0,1,2.45,2.71,5.93,5.93,0,0,1-.53,4.91c-.77,1.52-1.84,2.88-2.5,4.45a5.14,5.14,0,0,0,.16,4.88c.41.58,1,1,1.43,1.57,1.11,1.41,1.16,3.38,1,5.16a1.77,1.77,0,0,0,.09,1.05,1.71,1.71,0,0,0,1.09.67l6.74,2c1.37.4,2.71.58,4.06,1"/><path class="cls-3" d="M128.32,429.71c.15,2.3,1.45,4.34,2.71,6.27a31.49,31.49,0,0,0,3.26,4.42,7.05,7.05,0,0,1,1.28,1.56,4.76,4.76,0,0,1,.39,2.56c-.12,1.6-.57,3.26,0,4.78a11.26,11.26,0,0,0,2.41,3.28,13,13,0,0,1,3,7.82,23.66,23.66,0,0,0,6.2,5.56,6.77,6.77,0,0,1,2.12,1.61,5.73,5.73,0,0,1,.88,2.46q.78,4.19,1.14,8.42a7.8,7.8,0,0,1-.5,4.32,14.39,14.39,0,0,1-2.35,2.71,9.25,9.25,0,0,0-2.14,4.2,12,12,0,0,0,.81,7.44,14.79,14.79,0,0,0,2.24,3.11q4.11,4.72,8.42,9.27a11.17,11.17,0,0,1,2,2.55c.93,1.83.76,4,.57,6.05-.28,3,1.89,5.37,2.62,8.25a15.8,15.8,0,0,1,.32,4.4,67.56,67.56,0,0,1-1,10"/><path class="cls-3" d="M177.23,435.3a3.62,3.62,0,0,1,4.22.47c1.37,1.3,1.52,3.49,2.79,4.88.49.53,1.11.92,1.61,1.44,1.36,1.42,1.58,3.56,1.72,5.52.19,2.62.35,5.39-.85,7.73-.37.72-.85,1.38-1.17,2.12a8.88,8.88,0,0,0-.4,4.26,5.56,5.56,0,0,0,.41,1.94c.58,1.22,1.86,1.9,2.9,2.76a21.75,21.75,0,0,1,2.16,2.24c2.95,3.29,7.41,5.14,10.32,8.46a32.07,32.07,0,0,1,3.75,5.27,9.51,9.51,0,0,1,1.27,3.22c.39,2.66-1.2,5.23-3.12,7.12a37.51,37.51,0,0,0-4,3.9,20.76,20.76,0,0,0-2.24,4.15c-2.06,4.54-3.43,9.21-6.74,12.93s-7,7.79-11.75,9.71-9.62,4.29-14.8,4"/><path class="cls-3" d="M274.45,612.57c-.52-.12-.66-.79-.68-1.33a56.73,56.73,0,0,1,.94-13.14c.52-2.74.92-5.09,1.46-7.83a11.74,11.74,0,0,0-.23-4.49,111,111,0,0,0-5.17-18.51c-1.4-3.73-1.8-7.64-2.73-11.51a17.46,17.46,0,0,1-.62-3.86,5.69,5.69,0,0,1,1.14-3.67,8.41,8.41,0,0,1,1.89-1.57,18.68,18.68,0,0,1,3.28-1.93c2.64-1.1,5.59-1,8.44-1a6.16,6.16,0,0,0,1.67-.19,6.57,6.57,0,0,0,2.61-1.87,22.89,22.89,0,0,0,3.22-3.74"/><path class="cls-3" d="M304.61,444.52a4.89,4.89,0,0,0-3-1.71c-1.14-.26-2.32-.33-3.44-.65a12.27,12.27,0,0,0-3.32-.84,6.4,6.4,0,0,0-1.88.37c-2.55.75-5.08,1.58-7.58,2.46a12.74,12.74,0,0,0-2.05.87,8.79,8.79,0,0,0-3.89,5.78,25.91,25.91,0,0,0-.31,7.15,34.65,34.65,0,0,0,.85,7.12,27.06,27.06,0,0,0,1.82,4.67c1.19,2.47,2.54,4.86,3.88,7.24a19,19,0,0,0,2.57,3.81c2.55,2.72,6.45,3.75,9.26,6.2,1.4,1.22,1.06,3.58,2.24,5s3.48,2.06,5.51,2,4-.52,6-.49a17.61,17.61,0,0,1,6.73,1.71,16.92,16.92,0,0,1,4.32,2.59,13,13,0,0,1,5.44,3,14,14,0,0,1,2.41,2.45,20.26,20.26,0,0,1,1.95,3.61l2.91,6.42a7.28,7.28,0,0,0,1.58,2.51,2.51,2.51,0,0,0,2.76.53c3.07-1.66,5.85-2.75,8.79-4.64a20.1,20.1,0,0,1,3.38-1.91,19,19,0,0,1,3.07-.8l8.1-1.61a4,4,0,0,0,2.5-1.14,4.27,4.27,0,0,0,.51-1l1-2.48a9.38,9.38,0,0,1,1.8-3.13,3.19,3.19,0,0,1,3.31-.89c2.32.95,4,3.44,5.37,5.54,1,1.53,1.8,3.21,2.83,4.74a22.84,22.84,0,0,0,4.18,4.6,16.5,16.5,0,0,0,4.48,3.17c1.67.62,3.52.51,5.22,1a7.27,7.27,0,0,1,3.42,2.29c1.63,2,2.12,4.67,3.71,6.67.95,1.21,2.26,2.1,3.16,3.34s1.31,3.08.32,4.25c-1.3,1.53-1.44,3.67-1.7,5.66s-.15,4-.56,5.88a11.34,11.34,0,0,1-1.08,2.93,10.57,10.57,0,0,0-.89,1.82,7.31,7.31,0,0,0-.2,2.09,17.18,17.18,0,0,0,.12,2.27c.14.89.43,1.75.64,2.64a15.2,15.2,0,0,1,.18,6c-.71,4,1,8.45,3.62,11.6a9.36,9.36,0,0,1,1.71,2.41,6.61,6.61,0,0,1,.19,3.13c-.58,5-2.13,9.89-1.66,14.87.27,2.88,2.26,5.35,4,7.67,3.39,4.62,5.09,10.25,6.53,15.79a19.82,19.82,0,0,0,1.09,3.4c.75,1.61,1.95,3,2.48,4.7a30.27,30.27,0,0,1,7.69,7.32,12.06,12.06,0,0,0,2.72,3.39c1.53,1,3.55,1,5.37.69a20.61,20.61,0,0,1,5.49-.69,41.55,41.55,0,0,1,4.61,1.18,19.55,19.55,0,0,0,5.24.25,19.88,19.88,0,0,0,5.22-.81,22.33,22.33,0,0,0,5.28-2.91l12.56-8.51a8,8,0,0,0,3.16-3.14c1-2.32-.31-5.2.79-7.48.79-1.63,2.61-2.52,3.63-4,1.33-2,1-4.62.62-7-.29-1.79-1.07-3.54-.47-5.26a21.14,21.14,0,0,0,1.18-3.13,9,9,0,0,0-.29-3.37c-1.37-6.53-2.05-13.46.18-19.75,1-2.8,1.94-5.17,2.06-8.14a35.68,35.68,0,0,1,.09-4,4,4,0,0,1,2.18-3.17c1.22-.47,2.65,0,3.9-.42a5.8,5.8,0,0,0,1.67-1l3.39-2.7A4.07,4.07,0,0,0,496,554a3.61,3.61,0,0,0,.67-1.74c.52-3.4-.82-6.81-2.54-9.77.32-1.87-.89-3.47-.78-5.36a8.33,8.33,0,0,1,.46-2,13.41,13.41,0,0,1,1-2.55c1.73-3,5.5-4.13,7.92-6.62.74-.76,1.43-1.7,2.47-1.9.7-.14,1.44.09,2.14-.09a5.39,5.39,0,0,0,2.05-1.62c1.41-1.36,3.37-2,4.9-3.21,1.34-1.07,2.32-2.57,3.75-3.53a13.32,13.32,0,0,0,1.59-1.06c1.41-1.27,1.43-3.44,1.35-5.34a1.93,1.93,0,0,1-.14-2.47A6.34,6.34,0,0,1,523.1,505l5.55-3.06a23.49,23.49,0,0,1,5.21-2.36,24.37,24.37,0,0,1,3.9-.62l4.34-.43a16.21,16.21,0,0,1,6.25.18"/><path class="cls-3" d="M566.87,446.54a14.43,14.43,0,0,0-2-4.48c-1.17-1.79-3.25-3.29-3.56-5.4a21.06,21.06,0,0,1,0-6.14,5.82,5.82,0,0,0,.08-2.31c-.33-1.3-1.65-2.25-1.74-3.6a3.28,3.28,0,0,1,1-2.31c.58-.64,1.26-1.18,1.78-1.87a.7.7,0,0,0,.19-.5.79.79,0,0,0-.25-.42l-1.92-2c-.59-.61-1.34-1-1.76-1.74a1.14,1.14,0,0,1-.19-.78,1.08,1.08,0,0,1,.75-.67c1.59-.57,3.44.14,5-.47s2.39-2.28,3.06-3.82l5.12-11.71a12,12,0,0,1,1.44-2.63,5.61,5.61,0,0,1,2-1.56,3.81,3.81,0,0,0,1.41-.85,2.83,2.83,0,0,0,.43-1,20.83,20.83,0,0,0,.56-8.64c-.12-.82-.32-1.72-1.08-2-.36-.16-.78-.1-1.14-.24-.85-.34-.88-1.5-.85-2.42a15.65,15.65,0,0,0-3.35-10.08,1.82,1.82,0,0,0-.79-.67,1.91,1.91,0,0,0-.89,0l-4.7.61a4.69,4.69,0,0,1-3-.33,3.38,3.38,0,0,1-1.09-1.55,13.37,13.37,0,0,1-1-5.8,27.44,27.44,0,0,0,.21-4.24,6.82,6.82,0,0,0-3.29-5.06,63.28,63.28,0,0,0-5.84-3c-2-.91-4-2.4-4.34-4.55-.27-1.61.44-3.19,1-4.72.38-1,.64-2.34-.16-3.09s-2-.45-3-.13a24.89,24.89,0,0,1-4.94,1.13,4.47,4.47,0,0,1-4.21-1.18L532.88,334a6.33,6.33,0,0,1-1.57-1.57,5.22,5.22,0,0,1-.51-3.2,5.75,5.75,0,0,0-.16-3.06c-.71-1.5-2.69-1.85-4.36-1.83a26.22,26.22,0,0,0-2.93.2,2.91,2.91,0,0,1-1.58-.07,2.7,2.7,0,0,1-1.21-1.61,25.09,25.09,0,0,1-1.18-4.17c-.67-3.57-1.5-7.52-4.11-10-1.24-1.2-2.75-2.06-4.1-3.13a33.13,33.13,0,0,1-3.48-3.33c-2.11-2.21-4.32-4.6-4.88-7.61-.31-1.64-2.28-2.59-3.72-3.42a5.64,5.64,0,0,1-1.12-.72c-1-.92-1-2.48-1.45-3.74a2,2,0,0,0-.49-.78,2,2,0,0,0-.89-.44c-1.12-.28-2.39-.06-3.35-.68a4.35,4.35,0,0,1-1.35-1.7l-1.53-2.78c-.6-1.09-1-2.43-2.15-2.84a5.32,5.32,0,0,0-1.38-.17,8.08,8.08,0,0,1-5.9-3.22,2.39,2.39,0,0,1-.56-1.33,2.49,2.49,0,0,1,.29-1.12,10.94,10.94,0,0,1,1.8-2.76,8.1,8.1,0,0,0,1.34-1.7c.33-.7.38-1.5.66-2.21a3.69,3.69,0,0,1,1.58-1.82c1-.58,2.37-.67,3.13-1.57a4.09,4.09,0,0,0,.5-3.21,93.59,93.59,0,0,0-2.76-12.12c-.51-1.86-2.62-3-2.94-4.92a8.21,8.21,0,0,1,1.11-5,3.49,3.49,0,0,1,1.59-1.73,5.4,5.4,0,0,1,2.09-.1,2,2,0,0,0,1.88-.71,3,3,0,0,0,.14-1.92,6.68,6.68,0,0,1,.49-3.24,20.7,20.7,0,0,0,1.24-2.71,8.45,8.45,0,0,0,.19-1.88l.1-4.21c.06-2.64-.22-5.56,1.57-7.49a9.73,9.73,0,0,0,1.61-1.73,4.61,4.61,0,0,0,.43-1.5c.38-2.71.22-5.48.74-8.17.4-2.09,1.2-4.08,1.8-6.13a13,13,0,0,0,.56-6.3c-.67-3.19.86-6.4.77-9.66,0-.65,0-1.41.54-1.78a1.5,1.5,0,0,1,.8-.24c1.45-.11,3.08.51,4.25-.34a7.21,7.21,0,0,0,1.32-1.67c.44-.59,1-1.07,1.47-1.66,1-1.37,1.2-3.17,1.74-4.78,1.06-3.14,3.52-5.58,5.9-7.88l3.93-3.81c1.78-1.73,3.78-3,5-5.16.4-.71.81-1.53,1.59-1.75.57-.16,1.19.06,1.77-.07,1-.22,1.42-1.27,1.93-2.1,1.34-2.16,3.71-3.4,6-4.59s4.58-2.56,5.73-4.82c1.07-2.09.91-4.57.73-6.91l-.32-4.24c-.14-1.73,0-3.51-.63-5.12-.35-.88-.84-1.7-1.19-2.58a9.36,9.36,0,0,1-.64-4.44c.13-1.35.57-2.67.66-4,.31-4.47-3-8.77-2-13.13a16.44,16.44,0,0,0-.16-4.53,2.23,2.23,0,0,0-.4-1.37,5,5,0,0,0-1.16-.72,3.91,3.91,0,0,1-1.37-2.93,11.23,11.23,0,0,1,1.21-7.45c.51-.8,1.17-1.5,1.65-2.32a11.65,11.65,0,0,0,1.11-2.93c.63-2.24,1.18-4.5,1.67-6.78.33-1.55.8-3.34,2.25-4,3.34-1.52,6.6-3.39,8.38-6.61.79-1.43,1.11-3.13,2.15-4.4,1.31-1.58,3.6-2.27,4.54-4.1.56-1.09.7-2.62,1.86-3a9.45,9.45,0,0,1,1.61-.15c1.74-.29,2.4-2.48,3.82-3.54s3.35-.87,4.75-1.86a7.77,7.77,0,0,0,2-2.59,31.78,31.78,0,0,1,4.54-6"/><path class="cls-3" d="M575.73,381.19a7,7,0,0,0,5.35-.93c1-.68,1.88-1.64,3-2.27a11.31,11.31,0,0,1,2.84-1.07,6.13,6.13,0,0,1,2.43-.34c1.37.17,2.46,1.21,3.77,1.63a17.15,17.15,0,0,0,3,.41,3.58,3.58,0,0,1,2.59,1.31,3.75,3.75,0,0,1,2.09,2.77,4,4,0,0,0,.46,1.58,2.4,2.4,0,0,0,.78.59,22.47,22.47,0,0,0,2.62,1.25,2.28,2.28,0,0,0,.67.17c.84,0,1.31-1,2-1.4a2.6,2.6,0,0,1,2.2-.18,11.52,11.52,0,0,1,2,1,11.17,11.17,0,0,0,5.67,1.5c1,0,1.9-.23,2.84-.35s2.13-.2,3.2-.26l4.75-.25c.62,0,1.35,0,1.7.5a1.82,1.82,0,0,1,.19,1.2,4.18,4.18,0,0,1-2.17,4l-3.92,2.86-3.09,2.24a7.19,7.19,0,0,0-1.81,1.71,3.46,3.46,0,0,0,3.11,5.32c1.56-.09,2.85-1.2,4.3-1.81a2.1,2.1,0,0,1,.81-.2,1.72,1.72,0,0,1,1,.45,3.51,3.51,0,0,1,1.19,1.88c.59,2.34,2.48,4.44,3.4,6.67.54,1.33,1,2.71,1.56,4a28.64,28.64,0,0,0,4.75,6.74c.94,1.08,2,2.22,3.43,2.42a8.73,8.73,0,0,0,2.73-.32,11.33,11.33,0,0,1,3.43.21.59.59,0,0,1,.39.13c.19.18.1.5,0,.74l-1.68,3.78c-.56,1.27-1.13,2.74-.56,4s1.86,1.75,3,2.42a13.56,13.56,0,0,0,2.18,1.26,2.54,2.54,0,0,0,2.41-.15c.46-.34.74-.88,1.23-1.18a2.05,2.05,0,0,1,1.81,0,6,6,0,0,1,1.53,1.07,7.46,7.46,0,0,0,5.07,2.06c1,0,2.15-.46,2.81.25a3.3,3.3,0,0,1,.48,1.75,2.92,2.92,0,0,0,2.38,2.52,6.47,6.47,0,0,0,2.12-.36,8.67,8.67,0,0,1,4.41.07,44.81,44.81,0,0,1,10.52,4.8,10.33,10.33,0,0,0,4.09,1.62c2.63.28,5.36-.14,7.69,1.13,1.16.63,2.18,1.58,3.48,1.8,1.06.18,2.16-.15,3.2.09,2.23.5,3.23,3.31,5.37,4.1a11.15,11.15,0,0,0,1.91.39,7.7,7.7,0,0,1,4,2.19c4.3,4.44,8.88,8.89,11.72,14.38a8,8,0,0,0,1.64,2.43c2.08,1.82,6,1.58,7.3,4.24.56,1.11.54,2.42.93,3.6a5.49,5.49,0,0,0,2,2.73c.41.3.89.58,1,1.06a1.75,1.75,0,0,1,0,1c-.66,2.63-2.19,5.16-1.9,7.86s2.39,5.25,1.63,7.85c-.59,2-1.63,3.93-1.3,6,.51,3.3,3.19,5.75,5.07,8.51A48.7,48.7,0,0,1,747,522.7a91,91,0,0,0,6.26,10c1.53,2.11-.28,4.91-.12,7.51.05.78.22,1.54.25,2.32.1,2.87-1.74,5.47-2.1,8.32a8.25,8.25,0,0,0,1.33,5.59,19,19,0,0,1,1.58,2.32c.8,1.69.53,3.85,1.74,5.27.45.51,1,.88,1.51,1.37a6.92,6.92,0,0,1,1.26,2.23c.46,1.13.82,2.59,0,3.45-.37.37-.9.54-1.27.9-.77.73-.69,1.95-.56,3,.28,2.17,1.32,4.18.52,6.21-.39,1-1,1.93-1.36,3-.08.25-.15.51-.23.76s-.23.63-.36.94a38.66,38.66,0,0,0-2.41,8.56,1.86,1.86,0,0,0,.32,1.7"/><path class="cls-3" d="M823.75,511.76c4.63-.26,9,1.74,13.49,3,1.28.37,2.57.69,3.87,1a6.7,6.7,0,0,0,2.27.18,7,7,0,0,0,2-.68q2.24-1.05,4.4-2.25c.73-.4,1.35-.43,1.61-1.22a4,4,0,0,0,1.3-2.94,12.07,12.07,0,0,0-.48-3.26L851,500.94a6.73,6.73,0,0,1-.29-2.55,7.62,7.62,0,0,1,1.27-2.78,31.26,31.26,0,0,0,3.57-8.29,12.6,12.6,0,0,0,.18-6.22,23.92,23.92,0,0,0-2.43-5.9,6.78,6.78,0,0,1-1.14-3.34"/><path class="cls-3" d="M827.1,542.66a3.72,3.72,0,0,1,2.34,3c.18,1.56-.65,3-.94,4.59a11.4,11.4,0,0,0,.86,5.94,36.07,36.07,0,0,1,2,5.74,23.69,23.69,0,0,1,.19,5.52l-.36,8c-.07,1.43-.21,3-1.31,4-.46.39-1,.61-1.53,1a3.48,3.48,0,0,0-1.31,1.92,26,26,0,0,1-3.79,8.52,5.2,5.2,0,0,1-1.4,1.48,2.13,2.13,0,0,1-2,.25,3.26,3.26,0,0,1-1.43-1.91l-1-2.44"/><path class="cls-3" d="M795.21,381.11a15,15,0,0,0,.17,4.64,8.1,8.1,0,0,0,2.13,4.08c.87.86,2.17,1.34,2.26,2.57l1,13.52a17.49,17.49,0,0,0,.78,4.66,14.57,14.57,0,0,0,3.17,4.69,15.36,15.36,0,0,0,3.06,2.7,15.07,15.07,0,0,0,5.4,1.81,23.87,23.87,0,0,0,6.72.58,3.6,3.6,0,0,1,3.15,1.27,9.6,9.6,0,0,1,1.07,2c1.94,4.12,5.88,6.87,9.69,9.36a26.25,26.25,0,0,0,7.54,3.81,15.14,15.14,0,0,1,3.45,1.05c.51.28,1,.66,1.5.91,1.45.68,2.93.32,4.46.81,1.18.38,2.46-.27,3.7-.14a5.4,5.4,0,0,1,2.37,1.09,33.62,33.62,0,0,1,4,3.3c1.16,1.11,2.34,2.36,3.9,2.73,1.09.25,2.24,0,3.34.25.7.12,1.35.41,2,.59,3.07.83,6.34.05,9.39,1.15,1.16.42,2.25,1.06,3.43,1.42,2.46.74,5.12.18,7.55-.64s4.81-1.9,7.36-2.23a22.54,22.54,0,0,1,5.06.06c7.69.73,15.75,2.37,22.89-.54a11.83,11.83,0,0,1,4.34-1.34c2.35,0,4.82,1.81,6.87.66a19,19,0,0,0,1.58-1.26,3.79,3.79,0,0,1,4.4.14"/><path class="cls-3" d="M834,433.05a32.87,32.87,0,0,1-5.43-.13c-2.45-.2-4.58.08-6.94-.62a39.77,39.77,0,0,1-8-3.36c-1.53-.85-3.14-1.84-4.89-1.73a2.52,2.52,0,0,1-.91,0,1.86,1.86,0,0,1-.66-.42,113.64,113.64,0,0,1-9.28-8.81c-4.67-5-6.49-12.35-12.06-16.28a8.4,8.4,0,0,1-2.93-2.71c-.36-.71-.47-1.52-.77-2.26a2.18,2.18,0,0,0-1.68-1.52"/><path class="cls-3" d="M799.3,313a45.79,45.79,0,0,0-1.6,4.71,3.42,3.42,0,0,0-.18,1.34,2.6,2.6,0,0,0,1.43,1.82c.7.4,1.48.62,2.2,1,2.45,1.26,3.37,4.25,3.07,7a16.38,16.38,0,0,0,.22,6.87c.28.87.71,1.7.91,2.6a12,12,0,0,0,.45,2.16c.47,1.08,1.59,1.81,1.9,2.94s-.07,2.25.48,3.38a4.41,4.41,0,0,0,2.25,2.38,2,2,0,0,1,.65.3,1.11,1.11,0,0,1,.34.89,4.08,4.08,0,0,1-.2,1c-.25.95-.29,1.94-.54,2.89a15,15,0,0,0-.84,4.11,5.36,5.36,0,0,0,1.41,3.52c.22.25.49.53.45.86s-.36.54-.65.7l-3.44,1.9a8,8,0,0,0-2.76,2.11c-.41.57-.66,1.24-1,1.83a2.41,2.41,0,0,1-1.63,1.22"/><path class="cls-3" d="M901.8,293.84l-3.7,9.25c-.45,1.1-1.18,2.4-2.36,2.34s-1.8-1.35-2.86-1.73a4.16,4.16,0,0,0-2.8.44,26.3,26.3,0,0,1-9.61,1.79,11,11,0,0,0-3.39.27,8.25,8.25,0,0,0-2.68,1.63,57.89,57.89,0,0,0-10.35,10.86c-.76,1-1.69,2.23-3,2.23a4.06,4.06,0,0,1-2.07-.83,13.31,13.31,0,0,1-4.41-3.84,36.85,36.85,0,0,1-1.81-4.28,2,2,0,0,0-.61-.84,2.22,2.22,0,0,0-1.16-.28l-4.38-.22c-1.22.5-2.58-.16-3.58-1a5.51,5.51,0,0,1-1.56-2.25,21.12,21.12,0,0,1-.57-2.87,11.91,11.91,0,0,0-3.24-5.68,35.55,35.55,0,0,0-5.14-4.16c-2-1.39-3.35-3.56-5.11-5.2a33.87,33.87,0,0,1-3.26-3.19c-2.68-3.3-3.26-7.78-3.58-12a8.65,8.65,0,0,1,.07-2.64,7.32,7.32,0,0,1,1.24-2.52,12.4,12.4,0,0,1,2.92-3.08,2.82,2.82,0,0,0,1.07-1,2.39,2.39,0,0,0,.14-.88l.09-2.93a6,6,0,0,1,2.52-4.62c1.5-1.12,3.21-1.91,4.68-3.06a12.29,12.29,0,0,0,2.69-2.93,29.87,29.87,0,0,1,1.81-2.85c.45-.54,1-1,1.38-1.6a7.34,7.34,0,0,0,1.09-3.44c.27-2.56,0-5.16.31-7.71.15-1.35.46-2.67.53-4a6.53,6.53,0,0,0-.84-3.89c-1.79-2.76-1.62-6.56-1-9.78a4.7,4.7,0,0,0,.05-2.8,3.69,3.69,0,0,0-1.09-1.24L833,208.78l-4.2-3.55a13.1,13.1,0,0,0-2-1.52,13.34,13.34,0,0,0-5.81-1.24l-6,.53a6.51,6.51,0,0,1-3.17-.25,5.55,5.55,0,0,1-2.63-3.32c-.38-1-.86-2.26-1.94-2.45-.66-.11-1.35.23-2,.06-1.15-.3-1.68-2.07-2.86-1.93-.68.08-1.08.76-1.44,1.34a10.74,10.74,0,0,1-1.8,2.22,1.62,1.62,0,0,1-.73.46c-.84.17-1.38-.85-2.12-1.29-1.07-.64-2.42,0-3.67.08a3.45,3.45,0,0,1-2.09-.67"/><path class="cls-3" d="M769.6,205.08a15.79,15.79,0,0,0-3.16,5.49c-.17.51-.38,1.09-.88,1.29a1.61,1.61,0,0,1-1,0c-1.71-.45-3.3-1.36-5.05-1.55s-3.86.67-4.16,2.41c-.2,1.13.31,2.57-.61,3.26a2.83,2.83,0,0,1-.75.34,15.83,15.83,0,0,0-7,5.13,37.56,37.56,0,0,0-4.53,7.53c-1.56,3.21-3.16,6.7-6.25,8.5-2.65,1.55-6.24,1.74-8.05,4.22-1.67,2.3-2.59,5-4.2,7.36a1.76,1.76,0,0,1-1.29.93,1.91,1.91,0,0,1-.86-.26,33.16,33.16,0,0,1-3.36-2,1.77,1.77,0,0,0-.89-.39,1.74,1.74,0,0,0-1,.4q-3.3,2.24-6.7,4.31a9.7,9.7,0,0,1-2.14,1.06,9.94,9.94,0,0,1-3.73.18c-3.46-.27-7.12.25-10.58.05-2.5-.15-5.11-.76-7.45.14s-4,3.16-6.5,3.56c-1.53.25-3.15-.28-4.62.2a6.59,6.59,0,0,0-2.07,1.25,47.47,47.47,0,0,0-4.77,4.42,7.59,7.59,0,0,1-3,2.35c-1.29.39-2.75,0-4,.55a5.88,5.88,0,0,0-2,1.72,29.51,29.51,0,0,0-2.7,3.22c-1.22,1.94-3.17,3.33-4.41,5.25a18.08,18.08,0,0,0-1.73,3.95l-1.48,4.29a10.78,10.78,0,0,0-.63,2.42c-.16,1.48.25,3.13-.61,4.34-.29.4-.7.71-1,1.13a4.15,4.15,0,0,0-.53,1.77,40.12,40.12,0,0,0-.38,4.64,17.85,17.85,0,0,1-1,5.1,7.59,7.59,0,0,1-3,4.05c-1.47.94-3.46,1.28-4.33,2.79-.73,1.25-.39,2.87-.91,4.22a3.68,3.68,0,0,1-5.08,1.78c-1.13-.66-2-2-3.31-2a3.74,3.74,0,0,0-1,.24l-5.22,1.75a1.6,1.6,0,0,1-.68.12,1.11,1.11,0,0,1-.77-.66,3.28,3.28,0,0,1,.58-3.1,10.89,10.89,0,0,0,1.69-2.8,1.07,1.07,0,0,0-.08-.91c-.29-.38-.89-.28-1.34-.09s-1,.39-1.38.13-.42-.91-.65-1.37a1.42,1.42,0,0,0-2.13-.39c-1.15,1.08-3.2,1.09-4.75,1.39-1,.19-2.32.19-2.8-.73a2.56,2.56,0,0,1-.09-1.6,6.05,6.05,0,0,0,.1-1.94,2,2,0,0,0-1.07-1.54,2.22,2.22,0,0,0-2.1.39c-.61.42-1.09,1-1.69,1.45a3.58,3.58,0,0,1-3.36.65,20.49,20.49,0,0,1-2.3-1.54,5.06,5.06,0,0,0-3.86-.28,13.14,13.14,0,0,0-3.52,1.84,10.58,10.58,0,0,0-2.38,2c-1.58,1.94-1.72,4.71-1.3,7.18a1.64,1.64,0,0,1-.08,1.2,1.3,1.3,0,0,1-.52.41c-1.47.73-3.2.49-4.83.54s-3.52.61-4.08,2.15c-1.13.71-2.06,1.43-3.12,2.24a1.8,1.8,0,0,0-.54.56,1.31,1.31,0,0,0,.2,1.31,10.33,10.33,0,0,0,1,1,4.11,4.11,0,0,1,1.08,2.6c.06,1.51-.73,3-.58,4.49a9.32,9.32,0,0,1-.3,1.93c-.37.22-.44.42-.83.6l-2.44,1.14a1.32,1.32,0,0,0-.59.44,1.07,1.07,0,0,0,.33,1.27,8.73,8.73,0,0,1,1.08.92,2.67,2.67,0,0,1,.11,2.45,6.35,6.35,0,0,0-.6,2.46,7.59,7.59,0,0,0,1.13,2.58,2.24,2.24,0,0,1-.12,2.64c-.87.76-2.25.14-3.36.46a2.69,2.69,0,0,0-1.66,1.71,7.67,7.67,0,0,0-.36,2.44l-.21,4.78c0,.88.2,1.68.14,2.57a1.43,1.43,0,0,1-.36,1,1.41,1.41,0,0,1-.7.25,20.9,20.9,0,0,1-2.62.23,6.82,6.82,0,0,1-1.28-.06,7.65,7.65,0,0,1-1.21-.37l-2.15-.79"/><path class="cls-3" d="M516,159.17a18.84,18.84,0,0,0-1.7-5.28c-.89-2-1.87-4.2-3.67-5.54-.64-.48-1.36-.83-2-1.26a15.8,15.8,0,0,1-1.73-1.32,28,28,0,0,1-6.71-7.46c-1.48-2.64-4.78-3.62-7.29-5.32a17.4,17.4,0,0,0-8.34-3.3c-1.37-.09-2.83,0-4.05-.61a19,19,0,0,0-2.27-1.46,5.24,5.24,0,0,0-2.4-.1l-3.78.43c-4.24.48-8.84,2-12.79.34a32,32,0,0,1-4.4-2.35,8,8,0,0,1-2.59-2.1,11.73,11.73,0,0,1-1-2.15,13.17,13.17,0,0,0-4.91-5.86"/><path class="cls-3" d="M398.69,104.15c2.37-.68,4.9-1.36,7.24-.61a13.26,13.26,0,0,0,2.43.79c1.52.19,2.94-.7,4.33-1.37a34.68,34.68,0,0,1,8.22-2.47l4.45-.95c1.32-.28,2.9-.5,3.86.46a5.34,5.34,0,0,1,.92,1.59,20.71,20.71,0,0,0,3.94,4.84c1.43,1.52,2.79,3.29,3,5.37"/><path class="cls-3" d="M399.62,113a15.36,15.36,0,0,1-2.48-1.87,4.07,4.07,0,0,0-2.83-1.08,8.57,8.57,0,0,0-2.11.75,5.94,5.94,0,0,1-2,.37,1.46,1.46,0,0,1-.51-.07c-.49-.2-.64-.82-.72-1.34-.34-2-.87-4.21-2.46-5.51a15.86,15.86,0,0,1-2-1.48c-1.31-1.49-.8-3.94-2-5.54-1.84-2.5-7.05-2.18-7.74-5.69a4.84,4.84,0,0,1,.42-2.16c.42-1.51.08-3.08.24-4.61s1-1.84,1.66-3a8.71,8.71,0,0,1,.7-1.36c.82-1.08,2.5-1.36,3.08-2.58.67-1.41-.56-3.13-.05-4.61.34-1,1.37-1.57,2.09-2.35a4.48,4.48,0,0,0,1.15-3.35c-.12-1.37,1-2,1.23-3.4a6.31,6.31,0,0,0-.59-4c-.59-1-1.58-1.89-1.88-3.06a6.64,6.64,0,0,1,.4-3.36,19.54,19.54,0,0,0,.41-7.8"/><path class="cls-3" d="M350.79,88.43c.66,2.07,1.32,4.23.92,6.36-.27,1.4-1,2.69-1.26,4.1a11.75,11.75,0,0,0,1,6.39,24.58,24.58,0,0,1,2,6.23c.12,1.15,0,2.32.14,3.47a5.37,5.37,0,0,0,1.16,3.2c.93,1,2.51,1.62,2.82,3,.08.31.07.63.12.95.23,1.51,1.59,2.55,2.7,3.6a16,16,0,0,1,3,3.74c1.64,2.88,3.16,5.89,5.4,8.33a22.74,22.74,0,0,1,3,3.52c1.8,3,1.75,6.85,3.95,9.52a20.48,20.48,0,0,1,1.66,2c.85,1.38.8,3.14,1.52,4.58s2.33,2.62,2.8,4.27c.71,2.49,2.83,3.94,3.7,6.38,1.34,3.76.68,7.91-.16,11.81a10.34,10.34,0,0,0-.38,3.07,7.91,7.91,0,0,0,.73,2.56,8.88,8.88,0,0,0,1.73,2.72,4.33,4.33,0,0,0,2.87,1.35c1.43,0,2.83-.82,4.23-.5,3.06.69,6.15,1.29,8.64,3.21,1.12.86,2.18,1.92,3.55,2.24,1,.22,2.05,0,3,.35a10.77,10.77,0,0,1,2.32,1.38,7.33,7.33,0,0,0,5.07,1c1.06-.18,2.08-.6,3.15-.68a2.84,2.84,0,0,1,2.78,1.23,7.79,7.79,0,0,0,3.42,3.53,13.49,13.49,0,0,0,3.22.83c4.95,1,9.23,4.12,12.79,7.7,1.19,1.19,3.23,1.51,4.35,2.77a6.58,6.58,0,0,1,1.83,4.59c0,1.25-.57,2.45-.62,3.71s.63,2.71,1.88,2.85c3,.33,5.21,2.59,7.29,4.73a3.74,3.74,0,0,0,.79.7c.9.53,2.09.2,3,.68,1.25.65,1.37,2.38,1.31,3.8a4.33,4.33,0,0,1-.64,2.54,5.92,5.92,0,0,1-1.85,1.29,3.68,3.68,0,0,0-1.76,1.89,1.77,1.77,0,0,0,.91,2.2c.35.12.73.1,1.08.23a2,2,0,0,1,1,1.66,12.24,12.24,0,0,0,.2,2,1.47,1.47,0,0,0,1.45,1.18c.2,0,.39-.11.59-.12a1.1,1.1,0,0,1,1,1,4.94,4.94,0,0,1-.21,1.52,6.31,6.31,0,0,0,1.83,5.51A14.46,14.46,0,0,1,469.1,260c.44,1.46.63,3.07,1.6,4.25a7.88,7.88,0,0,0,2.41,1.73,6,6,0,0,0,2.21.84c2.8.3,5.08-3.17,7.83-2.59"/><path class="cls-3" d="M394.15,189.38l-3.25,4.33a5.29,5.29,0,0,1-1.19,1.26,3.84,3.84,0,0,1-1.28.5,20.52,20.52,0,0,1-5.37.09,15.44,15.44,0,0,0-4.84.8l-5.47,1.4a2.06,2.06,0,0,0-1.17.6,2,2,0,0,0-.33.93c-.22,1.24-.62,2.68-1.8,3.12-.44.17-.93.16-1.36.37-1,.48-1.16,1.82-1.09,2.92s.21,2.36-.54,3.18a9.72,9.72,0,0,1-.86.7,4.82,4.82,0,0,0-1.22,4.27,42,42,0,0,1,.73,4.56,7.19,7.19,0,0,1-3.44,6.14,14,14,0,0,1-6,1.45,50.79,50.79,0,0,0-8.9,2,21.59,21.59,0,0,0-3.68,1.26,21.17,21.17,0,0,0-3.77,2.55c-2,1.56-4,3.12-5.84,4.81a8.89,8.89,0,0,0-2.19,2.59,8.68,8.68,0,0,0-.66,3.61,47,47,0,0,0,.14,4.75,5.45,5.45,0,0,1,0,1.89c-.33,1.31-1.56,2.15-2.7,2.87a7.86,7.86,0,0,1-4,1.58c-.63,0-1.25-.15-1.87-.12a1.75,1.75,0,0,0-1.56.87,2.64,2.64,0,0,0,0,2.57c.21.28.54.46.77.73a3.29,3.29,0,0,1,.59,2.19l.14,6.17a4.67,4.67,0,0,1-.36,2.38c-.25.45-.64.81-.93,1.25a1.42,1.42,0,0,0-.2,1.46c.27.49.93.67,1.16,1.17a1.57,1.57,0,0,1,.09.78c-.24,2.6-2.25,4.66-3.27,7.07a9.71,9.71,0,0,0-.33,6.53,19,19,0,0,0,1.46,3.26,13.73,13.73,0,0,0,2.42,3.62c1.29,1.27,3.08,2,4.14,3.48a8.27,8.27,0,0,1,1.25,3.83c.59,4.75,2.59,9.59,4.19,14.1a16.72,16.72,0,0,0,1.83,4,8.53,8.53,0,0,0,3.4,2.87c1.57.72,3.12.78,4.48,1.84a11,11,0,0,1,1.89,2.32,11,11,0,0,0,3.53,3.09c1.17.64,2.57,1.19,3.07,2.43a4.22,4.22,0,0,1,.15,2,25.06,25.06,0,0,1-2.87,9.36,3.15,3.15,0,0,0-.29.65,2.52,2.52,0,0,0,0,.82,13.59,13.59,0,0,1,.27,3.8,1.62,1.62,0,0,1-.33.77,1.77,1.77,0,0,1-.82.49,7,7,0,0,1-2.64.41c-.74,1.61-2.85,2.67-3.87,4.13-1.17,1.67-1.16,3.89-1.87,5.8a8.65,8.65,0,0,0-.72,2.17,7.92,7.92,0,0,0,.54,2.81c.63,2.44.25,5,.07,7.54s-.12,5.22,1.27,7.33c.95,1.43,2.42,2.46,3.38,3.89a6.19,6.19,0,0,0,1.23,1.62c.61.47,1.49.65,1.82,1.34a2.11,2.11,0,0,1-.52,2.06,3.53,3.53,0,0,0-1,1.95c0,1.25,1.51,2.28,1.12,3.47a6.19,6.19,0,0,1-2.21,3.13,93.5,93.5,0,0,1-11.75,8,11.09,11.09,0,0,0-3.68,2.64,2.81,2.81,0,0,1-1,1.06,2.43,2.43,0,0,1-1,.07,18,18,0,0,0-6,.57c-1.73-.63-3.48.45-5.32.54-1.5.08-3-.44-4.49-.21-2.48.39-4.12,2.68-6.05,4.29a2.74,2.74,0,0,1-1.31.72,12.62,12.62,0,0,1-1.62-.07,4,4,0,0,0-2.84,2.11,6.42,6.42,0,0,1-2.49,2.64,5.54,5.54,0,0,1-2.4.24l-5-.24a7,7,0,0,0-2.66.22c-.66.23-1.25.67-1.91.93-1.63.63-3.46.08-5.12-.47a7.67,7.67,0,0,1-2.12-1,10.5,10.5,0,0,0-1.19-.92c-.73-.38-1.7-.38-2.21-1-2.83-.41-4.69-2.5-6.55-4.68s-3.93-4.51-6.74-5.05c-3.07-.58-6,1.15-8.78,2.66a24.1,24.1,0,0,1-5.41,2.37c-3.08.83-6.34.6-9.54.54-5.19-.09-10.38.3-15.56.68"/><path class="cls-4" d="M192.44,319.42a5.12,5.12,0,0,0,2.05-2.78,31.9,31.9,0,0,1,1.18-3.32,13.65,13.65,0,0,1,2.9-3.54c.18-.17.42-.37.66-.27a.67.67,0,0,1,.3.32l.89,1.59a5.76,5.76,0,0,0,1.11,1.55,2,2,0,0,0,1.77.53c1.56-.43,1.54-2.94,3-3.62l-.12,7.49a5.5,5.5,0,0,1-.37,2.32,1.61,1.61,0,0,1-.67.74,1.9,1.9,0,0,1-.74.17,8.16,8.16,0,0,1-2.15-.13,12.39,12.39,0,0,0-1.9-.33,2.1,2.1,0,0,0-1.74.65c-.83,1-.12,2.77-1,3.71a2.19,2.19,0,0,1-1.94.47c-.68-.12-1.34-.38-2-.44a1,1,0,0,0-.49,0c-.33.12-.5.46-.67.75a15.6,15.6,0,0,1-4,4c-1.46,1.21-2.89,2.66-3.23,4.52a10.65,10.65,0,0,1-1.29-4.44,4.34,4.34,0,0,1,.57-2.75c.53-.77,1.42-1.21,2-1.93a10,10,0,0,0,1.28-2.91c.32-.83.94-1.9,1.9-2.07S191.46,320,192.44,319.42Z"/><path class="cls-4" d="M137.43,387.23A26.64,26.64,0,0,1,132.5,390c-3.08,1.44-4.15,5.26-6.28,7.91a2.78,2.78,0,0,1-.91.83,3.16,3.16,0,0,1-1.65.11,29.27,29.27,0,0,0-5,.07l-2.55.19a8.07,8.07,0,0,0-1.89.28,4.45,4.45,0,0,0-3,4.79c.26,1.59,1.37,2.89,2.06,4.35a8.7,8.7,0,0,1,.84,4.11,3.61,3.61,0,0,0,.08,1.39c.36,1,1.64,1.36,2.56,2a4.11,4.11,0,0,1,1.29,5.29c-.29.5-.7,1.06-.48,1.6s1,.63,1.63.72a5.12,5.12,0,0,1,2.79,1.32,24,24,0,0,0,2.25,2.37,18.17,18.17,0,0,1,1.74,1.09c.39.37.65.84,1,1.22a1.38,1.38,0,0,0,1.43.45,8.65,8.65,0,0,0-5.1-7.17,4.3,4.3,0,0,1-1.64-.93,1.13,1.13,0,0,1,.06-1.66c.52-.31,1.39,0,1.65-.58a1,1,0,0,0,0-.64c-.18-1.05-.5-2.27-1.48-2.68a6.21,6.21,0,0,0-1.43-.25,1.34,1.34,0,0,1-1.14-.79c-.18-.62.38-1.17.8-1.66s.7-1.35.15-1.68c-.33-.21-.75-.07-1.14-.1a1.71,1.71,0,0,1-1.33-1,5.39,5.39,0,0,1-.42-1.68c-.14-1.08-.2-2.36.64-3a4,4,0,0,1,1.35-.58c2.53-.79,4.59-2.59,6.58-4.35l3.83-3.39c1.51-1.33,6.12-6.12,7.62-10.61"/><path class="cls-4" d="M170.73,542.1l-6-1.35c-2.86-.64-6.1-1.22-8.52.43a3.26,3.26,0,0,0-1.15,1.27,4.39,4.39,0,0,0-.3,1.48,57.9,57.9,0,0,0-.09,7.68c.07,1.28.11,2.76-.86,3.59-.39.33-.89.5-1.3.79a4.32,4.32,0,0,0-1.45,3.69,24.84,24.84,0,0,1,.1,4.13,30.84,30.84,0,0,1-1.17,3.6,16.37,16.37,0,0,0-.49,2.51l-1.34,9.14a4.67,4.67,0,0,0,.41,3.48c1.27,1.71,4.49,1.23,5.36,3.19.62,1.4.38,3,.43,4.58a4,4,0,0,1-.15,1.5,4.42,4.42,0,0,1-1.2,1.56,12.24,12.24,0,0,0-5.08,9.58l-.46,4.06a7.79,7.79,0,0,0,0,2.26,9.4,9.4,0,0,0,1.16,2.64,20.58,20.58,0,0,1,2.26,7.05c.19,1.55,1.22,2.88,1.16,4.44s-.36,3.1-.35,4.67a32.6,32.6,0,0,1,.11,4.07c-.08.71-.27,1.4-.29,2.11a16.46,16.46,0,0,0,.27,2.41,9.83,9.83,0,0,1-.17,3.42,23.48,23.48,0,0,0-.65,2.85,10.8,10.8,0,0,0,.5,3.56,21.43,21.43,0,0,0,1.72,5,7.19,7.19,0,0,0,3.78,3.49,16.53,16.53,0,0,0,4.44.69l8.35.55a10.23,10.23,0,0,0,4.71-.42c1.77-.74,3-2.39,4.47-3.58a10.09,10.09,0,0,1,3.74-1.85,9,9,0,0,0,2.71-.88c.5-.32.9-.78,1.37-1.15a8,8,0,0,1,4.2-1.44,8.9,8.9,0,0,0,3.67-.76c1.62-.92,2.28-3,2.23-4.83a45.37,45.37,0,0,0-.91-5.52,6.81,6.81,0,0,1,1-5.34,17.33,17.33,0,0,0,3.46-8.62,13.43,13.43,0,0,1,.7-3.27,15,15,0,0,1,1.69-2.6,13.09,13.09,0,0,0,2.46-7.43,73.42,73.42,0,0,0-.07-8.9c-.53-4.3-2.29-8.53-1.7-12.82.25-1.89.2-3.43.38-5.32a3.11,3.11,0,0,0-.07-1.36c-.24-.65-.89-1.07-1.2-1.69a2.9,2.9,0,0,1,1-3.21,6.17,6.17,0,0,0,.9-.87,2.91,2.91,0,0,0,.33-2.26c-.49-2.28-2.44-3.91-4.27-5.36l-4.12-3.24c-2.45-1.94-5.56-3.53-7.1-6.26a11,11,0,0,1-1.05-3.62l-.59-3.53a8.52,8.52,0,0,0-1-3.37c-1-1.57-2.91-2.29-4.67-2.92l-3.48-1.23C176,541.64,173.33,542.68,170.73,542.1Z"/><path class="cls-4" d="M259.06,652.12c.84.32,1.77,1.09,1.44,1.92a3.11,3.11,0,0,1-.38.59,4.69,4.69,0,0,0-.55,2.38,16.45,16.45,0,0,1-.3,2.22,2.35,2.35,0,0,1-.47,1.15c-.74.8-2.13.33-3.11.81-1.37.69-1.36,2.89-2.72,3.61a2.33,2.33,0,0,1-2.24-.18A6.67,6.67,0,0,1,249,663l-3.15-3.77a3.4,3.4,0,0,0-1.55-1.24,2.24,2.24,0,0,0-2,.6,7,7,0,0,0-1.8,2.94,4.59,4.59,0,0,0-.4,2.32,4.69,4.69,0,0,0,.51,1.3c.69,1.34,1.19,3.31,2.73,3.8,1.25.4,3.38.72,3.25,2.53,0,.57-.39,1.08-.38,1.65,0,1.16,1.47,1.71,2.63,1.68s2.44-.28,3.37.41c1.17.87,1,2.78.05,3.89a9.49,9.49,0,0,1-3.72,2.19,6.35,6.35,0,0,0-3.41,2.57,6.73,6.73,0,0,0-.49,3.09,32.17,32.17,0,0,1-.44,7.54,9.17,9.17,0,0,1-4.13,6.09c-1.84,1-4.51,1.58-4.75,3.67-.17,1.42,1,2.82.64,4.19a19,19,0,0,1-1,1.82,3.1,3.1,0,0,0,.71,3,9.15,9.15,0,0,0,2.67,1.88,1.9,1.9,0,0,0,1.14.32,1.45,1.45,0,0,0,.62-.28c1.85-1.33,1.73-4.14,2.95-6.06,1.32-2.09,4-2.8,6.19-3.85a35.29,35.29,0,0,0,6.36-4.22l8.29-6.43a40.9,40.9,0,0,0,7.39-6.75,1.49,1.49,0,0,0,.42-.87,1.59,1.59,0,0,0-.4-.92l-1.87-2.55c1.14-1.31,3.26-.07,5-.23s3.27-1.83,4.94-1.36a3.88,3.88,0,0,1,1.75,1.34,26.35,26.35,0,0,1,3.83,5.85,11.91,11.91,0,0,0,1.61,2.82,3.12,3.12,0,0,0,2.88,1.15,4.25,4.25,0,0,0,1.59-.86A56.38,56.38,0,0,0,298,686c2.25-2.4,4.38-5.2,4.71-8.48.39-3.91-1.81-7.54-3.68-11s-2.08-7.43-2.11-11.36a7,7,0,0,0-1.21-3.86c-.92-1.34-2.32-2.37-2.92-3.89s-.28-3.08-.32-4.64a11.3,11.3,0,0,0-.93-4.17,35,35,0,0,1-1.93-4.06c-.48-1.63-.42-3.56-1.63-4.77-.84-.85-2.13-1.12-3-1.92a6,6,0,0,1-1.17-1.61c-2-3.51-3.2-7.25-4.91-10.88a6.1,6.1,0,0,0-2.65-2.78c-.61-.33-1.48-.5-1.92,0s0,1.65-.5,2.27a1.49,1.49,0,0,1-1.07.46,4.69,4.69,0,0,1-3.36-.91c-1.73-1.35-2.27-3.92-4.15-5a3.71,3.71,0,0,0-3.47-.15c-.66.32-1.21.83-1.86,1.19-2.72,1.51-6.2-.14-9.19.69a11.51,11.51,0,0,0-4.34,2.82,41.37,41.37,0,0,0-3.74,3.63c-3.56,4.06-5.61,9.53-10.05,12.6-.34.23-.72.5-.78.91a1.41,1.41,0,0,0,.28.87,43.52,43.52,0,0,0,9.86,11.55c1.52,1.25,3.62-.09,5.49-.7a1.85,1.85,0,0,1,1-.14,2,2,0,0,1,1.13,1.07c1.58,2.68,3.11,5.68,5.93,7a8,8,0,0,1,1.62.82,4.06,4.06,0,0,0,.87.69C258.28,652.43,259,652.48,259.06,652.12Z"/><path class="cls-4" d="M580.81,484.36a33,33,0,0,0-2.57-8.05A9.5,9.5,0,0,1,577.1,473a2.74,2.74,0,0,1,1.61-2.85c1.19-.38,2.43.42,3.68.49.16,0,.35,0,.42-.15s-.09-.38-.25-.5a30.74,30.74,0,0,0-2.94-2,2.34,2.34,0,0,0-2.33-.36c-.32.2-.55.56-.93.64a1,1,0,0,1-1-.68,3.35,3.35,0,0,1-.11-1.34c.07-3-1-5.89-1.63-8.84-.32-1.61-.4-3.53.82-4.63.93-.84,2.42-1,3.12-2a4,4,0,0,0,.48-1.21,2.17,2.17,0,0,0-.16-2,1.51,1.51,0,0,0-2,.05,5.41,5.41,0,0,0-1.22,1.74,4.51,4.51,0,0,1-1.43,1.69,2,2,0,0,1-2.11.05,1.26,1.26,0,0,1-.14-1.92,3.82,3.82,0,0,0,.51-.35c.14-.15.19-.43,0-.54a.4.4,0,0,0-.26-.05c-.57,0-1.23.33-1.68,0a2.46,2.46,0,0,1-.34-.44,3.12,3.12,0,0,0-1.51-.86,3.34,3.34,0,0,0-1.28-.27,1.17,1.17,0,0,0-1,.67c-.42,1.1,1.51,2.05,1.13,3.16a1.44,1.44,0,0,1-.84.78,7.82,7.82,0,0,0-1.85.93,1.34,1.34,0,0,0-.29,1.83c.57.59,1.58.16,2.19-.4s1.26-1.28,2.08-1.19c1.09.12,1.47,1.51,2.26,2.27a6.5,6.5,0,0,0,.47,3.68c.51,1,1.54,1.64,1.92,2.68a4.92,4.92,0,0,1,.12,2l-.33,4.14a1.4,1.4,0,0,0,.15,1c.44.58,1.53.26,1.94.86.31.44,0,1.06-.43,1.36s-1,.4-1.44.66a1.18,1.18,0,0,0-.67,1.3,1.26,1.26,0,0,0,1.24.63,3.6,3.6,0,0,1,1.47.13,2.18,2.18,0,0,1,1,1.91,16.79,16.79,0,0,0,.39,4c.53,1.56,2,2.86,1.9,4.51-.07,2.1-2.94,3.43-3.7,5.38-.66,1.7-.18,3.72-1,5.37-.29.59-.72,1.1-1.06,1.66a33.46,33.46,0,0,0-1.63,4.43c-.59,1.46-1.81,2.89-3.39,2.89a5.19,5.19,0,0,1-3-1.47l-2.39-1.9a6.18,6.18,0,0,0-1.74-1.08,6,6,0,0,0-2.69-.08l-4.92.59a1,1,0,0,1-.65-.07c-.27-.17-.31-.54-.5-.81-.45-.65-1.45-.37-2.17,0l-1.18.56a1.09,1.09,0,0,0-.35.24c-.34.43.31,1,.87,1s1.08-.36,1.64-.28c.72.11,1.19.89,1.91,1.06a2.44,2.44,0,0,0,1-.05c2.35-.45,4.83-.94,7.1-.17a13.21,13.21,0,0,1,3.6,2.19l5.06,3.86a1.28,1.28,0,0,0,.84.36c.45,0,.73-.54.78-1a7,7,0,0,1,.13-1.37,3.77,3.77,0,0,1,1.11-1.32c2.15-2.06,2.29-5.37,3.08-8.24a16.8,16.8,0,0,1,4.09-7.18C579.67,486.9,581.08,485.82,580.81,484.36Z"/><path class="cls-4" d="M825.65,543.87a1,1,0,0,1-.07.15,2.22,2.22,0,0,1-1.21,1,4,4,0,0,1-4.94-1.12,30.22,30.22,0,0,1-2-2.65c-.71-1-1.51-1.86-2.16-2.86a17,17,0,0,1-1.52-3,33.68,33.68,0,0,1-2.21-8.78c-.29-2.56-.61-5.73.93-8a9.76,9.76,0,0,1,2.27-2.17l3.89-3a11.23,11.23,0,0,1,3.31-2,2.29,2.29,0,0,1,2.09.18c.53.42.68,1.17,1.11,1.69.85,1,2.44.95,3.57,1.64a5.93,5.93,0,0,1,1.9,2.4,13.83,13.83,0,0,0,1.45,2.05c1.6,2,3.26,4.27,3.42,6.87a11.77,11.77,0,0,1-1.72,6,53.3,53.3,0,0,1-3.73,6.13c-.71,1-1.58,2-2.25,3-.23.35-.18.56-.53.85s-.87.28-1.2.62A2.8,2.8,0,0,0,825.65,543.87Z"/><path class="cls-4" d="M771.32,199a26,26,0,0,0,.4-6.23c-.06-1.37-.06-3,1.11-3.74a1,1,0,0,1,.84-.13c.46.17.58.75.55,1.23-.06,1.51-.81,2.9-1.15,4.37-.16.7,0,1.69.67,1.8a1.28,1.28,0,0,0,.71-.16c1.14-.54,2.06-1.53,3.27-1.91a7.1,7.1,0,0,1,3.24,0,15.89,15.89,0,0,1,4.76,1.32c.92.49,2,1.17,2.92.71.17-.08.33-.2.51-.27a1.77,1.77,0,0,1,1.49.45,1.14,1.14,0,0,1,.44.43c.26.58-.56,1.09-1.2,1.06s-1.36-.25-1.87.14a2.4,2.4,0,0,0-.46.59,1.82,1.82,0,0,1-1.09.84.88.88,0,0,1-1.05-.69c0-.33.2-.64.25-1a1.36,1.36,0,0,0-.94-1.38,4,4,0,0,0-1.78-.1c-1.51.14-3.09-.17-4.6,0s-3.16.95-3.51,2.42c-.16.65-.08,1.44-.59,1.88s-1.48.18-2.14.52a1.94,1.94,0,0,0-.86,1.7,10,10,0,0,1-.08,2,1.24,1.24,0,0,1-.59.86,1,1,0,0,1-.61.09,2,2,0,0,1-1.54-1.39,3.48,3.48,0,0,1,.12-2.16A6,6,0,0,1,771.32,199Z"/><path class="cls-4" d="M440.33,108.32c0-.21.08-.49.29-.48a.36.36,0,0,1,.24.13c.67.65.82,1.66,1.32,2.45.87,1.39,2.65,1.93,3.76,3.14a2.45,2.45,0,0,1,.7,1.46,1.32,1.32,0,0,1-.81,1.3,1.65,1.65,0,0,1-1.4-.36c-.4-.3-.74-.69-1.17-.95a4.79,4.79,0,0,0-1.94-.52l-3-.37a1.75,1.75,0,0,1-1.3-.55c-.42-.62.19-1.52.93-1.67a3.51,3.51,0,0,1,2.15.55C440.69,111.75,440.3,109.23,440.33,108.32Z"/><path class="cls-4" d="M797.33,371a6.39,6.39,0,0,0-2.33,1.91,5.91,5.91,0,0,0-.68,2.56,44.11,44.11,0,0,0-.22,4.74.84.84,0,0,0,.11.5.75.75,0,0,0,.44.27,4.08,4.08,0,0,0,1.43.19.91.91,0,0,0,.43-.1c.32-.17.37-.6.39-1l.08-1.76c.1-1.92.37-3.73,1.83-5,1.13-1,2.7-1.3,3.88-2.2.39-.3.75-.87.41-1.22s-.79-.11-1.18.06C800.37,370.7,798.82,370.11,797.33,371Z"/><text class="cls-5" transform="translate(422.76 184.77)">S<tspan class="cls-6" x="14.22" y="0">K</tspan><tspan x="28.88" y="0">O</tspan><tspan class="cls-7" x="45.36" y="0">P</tspan><tspan x="58.14" y="0">JE</tspan></text><text class="cls-5" transform="translate(124.29 608.93)">OHRID</text><path class="cls-8" d="M159.71,585.13c.44-1.33.88-2.67,1.33-4q1.47-4.36,3-8.74l.1-.35h-7a.47.47,0,0,0-.46.25c-.45.71-.92,1.41-1.38,2.11a4.29,4.29,0,0,1-3.74,2h-3.38l.58-1.58c.83-2.29,1.68-4.58,2.51-6.88a1,1,0,0,0,0-.54c-1-2.69-2-5.39-3-8.08l-.15-.43c1.51.05,3,0,4.41.18a3.79,3.79,0,0,1,2.67,1.79c.5.74,1,1.48,1.48,2.21a.53.53,0,0,0,.36.23h6.95l.16,0-4.41-13c1.52,0,3-.08,4.47,0a4.13,4.13,0,0,1,3.46,2.28l5.13,9.19c.25.46.51.91.75,1.37a.39.39,0,0,0,.4.23c1.59,0,3.18,0,4.78,0a4.46,4.46,0,0,1,4.23,3.67,4.36,4.36,0,0,1-4.19,5q-2.35,0-4.71,0a.57.57,0,0,0-.57.35c-1.91,3.44-3.84,6.88-5.74,10.33a4.42,4.42,0,0,1-3.3,2.37l-.12,0Z"/><path class="cls-8" d="M398.83,206.85c.45-1.34.88-2.67,1.33-4l2.95-8.73c0-.11.06-.22.11-.36h-7a.5.5,0,0,0-.47.25c-.44.71-.91,1.42-1.38,2.11a4.27,4.27,0,0,1-3.73,2h-3.38l.57-1.59c.84-2.29,1.69-4.58,2.51-6.87a.86.86,0,0,0,0-.55c-1-2.69-2-5.38-3-8.08l-.15-.43c1.51.06,3,0,4.41.19a3.69,3.69,0,0,1,2.66,1.79c.5.73,1,1.47,1.48,2.2a.55.55,0,0,0,.37.23h6.95l.16,0-4.41-13.06c1.52,0,3-.07,4.47,0a4.11,4.11,0,0,1,3.46,2.27l5.12,9.19c.26.46.52.91.76,1.37a.38.38,0,0,0,.4.23c1.59,0,3.18,0,4.77,0A4.46,4.46,0,0,1,422,188.7a4.35,4.35,0,0,1-4.2,5c-1.56,0-3.13,0-4.7,0a.55.55,0,0,0-.57.35c-1.91,3.44-3.84,6.88-5.75,10.33a4.42,4.42,0,0,1-3.29,2.38.43.43,0,0,0-.13,0Z"/></g><path class="cls-9" d="M421.42,438.26s20.73-10.57,33.72,3.08S464.38,466,464.38,466l-4.4,11.3-14.53,25L438,515.08,421.42,492l-11.19-20.7-1.32-16.06,4.4-10.35Z"/><path class="cls-10" d="M436.55,518.44a4.54,4.54,0,0,1-2.09-2q-11.64-18.79-23.33-37.58a30.88,30.88,0,0,1-4.83-20,30.58,30.58,0,1,1,60.56,8.28,31,31,0,0,1-4.15,11.05q-11.49,19.15-22.94,38.32a4.31,4.31,0,0,1-2,2Zm.55-7.51c.13-.18.2-.27.26-.37,7.08-11.82,14.2-23.62,21.23-35.48A24.65,24.65,0,0,0,461,454.4,25.5,25.5,0,1,0,415.41,476q10.63,17,21.18,34.12C436.74,510.4,436.9,510.63,437.1,510.93Z"/><path class="cls-10" d="M436.69,477.29A15.3,15.3,0,1,1,452,462,15.3,15.3,0,0,1,436.69,477.29Zm0-5.08A10.22,10.22,0,1,0,426.5,462,10.19,10.19,0,0,0,436.7,472.21Z"/><path class="cls-9" d="M242,112.58s20.74-10.57,33.72,3.08S285,140.31,285,140.31l-4.4,11.3-14.53,25-7.49,12.77L242,166.29l-11.18-20.7-1.32-16.06,4.4-10.35Z"/><path class="cls-10" d="M257.16,192.76a4.55,4.55,0,0,1-2.08-2q-11.64-18.81-23.33-37.59a30.82,30.82,0,0,1-4.83-20,30.58,30.58,0,1,1,60.56,8.28,31.06,31.06,0,0,1-4.16,11.05q-11.47,19.15-22.94,38.32a4.27,4.27,0,0,1-2,1.95Zm.56-7.51c.13-.18.2-.27.26-.37,7.08-11.82,14.19-23.62,21.23-35.48a24.65,24.65,0,0,0,2.44-20.68A25.49,25.49,0,0,0,232,133.37a25.78,25.78,0,0,0,4,17q10.64,17,21.19,34.12C257.35,184.72,257.51,185,257.72,185.25Z"/><path class="cls-10" d="M257.31,151.61a15.3,15.3,0,1,1,15.32-15.26A15.3,15.3,0,0,1,257.31,151.61Zm0-5.08a10.22,10.22,0,1,0-10.19-10.2A10.19,10.19,0,0,0,257.31,146.53Z"/><path class="cls-9" d="M216.48,520.21s20.73-10.57,33.72,3.08,9.24,24.65,9.24,24.65L255,559.25l-14.53,25L233,597l-16.55-23.11-11.19-20.69L204,537.16l4.4-10.35Z"/><path class="cls-10" d="M231.61,600.39a4.52,4.52,0,0,1-2.09-2q-11.64-18.81-23.33-37.59a30.81,30.81,0,0,1-4.83-20,30.58,30.58,0,1,1,60.56,8.28,31.19,31.19,0,0,1-4.15,11q-11.49,19.14-22.94,38.31a4.31,4.31,0,0,1-2,1.95Zm.55-7.5.26-.37c7.08-11.83,14.2-23.63,21.23-35.48a24.68,24.68,0,0,0,2.45-20.69A25.5,25.5,0,1,0,210.47,558q10.64,17,21.18,34.12C231.8,592.35,232,592.58,232.16,592.89Z"/><path class="cls-10" d="M231.75,559.25A15.3,15.3,0,1,1,247.07,544,15.31,15.31,0,0,1,231.75,559.25Zm0-5.09A10.22,10.22,0,1,0,221.56,544,10.19,10.19,0,0,0,231.75,554.16Z"/><path class="cls-9" d="M148,261.54s20.74-10.57,33.72,3.08S191,289.27,191,289.27l-4.4,11.3-14.53,25-7.49,12.77L148,315.24l-11.18-20.69-1.32-16.07,4.4-10.34Z"/><path class="cls-10" d="M163.17,341.71a4.45,4.45,0,0,1-2.08-2q-11.64-18.81-23.33-37.59a30.78,30.78,0,0,1-4.83-20,30.57,30.57,0,1,1,60.55,8.28,30.92,30.92,0,0,1-4.15,11.05q-11.47,19.16-22.94,38.32a4.2,4.2,0,0,1-2,1.94Zm.56-7.5c.13-.18.2-.27.26-.37,7.08-11.82,14.19-23.63,21.22-35.48a24.64,24.64,0,0,0,2.45-20.69A25.49,25.49,0,0,0,138,282.32a25.79,25.79,0,0,0,4,17q10.64,17,21.19,34.12C163.36,333.68,163.52,333.9,163.73,334.21Z"/><path class="cls-10" d="M163.32,300.57a15.3,15.3,0,1,1,15.32-15.26A15.32,15.32,0,0,1,163.32,300.57Zm0-5.08a10.22,10.22,0,1,0-10.19-10.2A10.19,10.19,0,0,0,163.32,295.49Z"/></svg>